<?xml version="1.0" encoding="UTF-8"?>
<!DOCTYPE svg PUBLIC '-//W3C//DTD SVG 1.1//EN' 'http://www.w3.org/Graphics/SVG/1.1/DTD/svg11.dtd'>
<svg width="1737.7" height="1903.7" xmlns="http://www.w3.org/2000/svg" xmlns:xlink="http://www.w3.org/1999/xlink">
 <linearGradient id="a" gradientUnits="userSpaceOnUse">
  <stop stop-color="#ff5656" offset="0"/>
  <stop stop-color="#ff5656" stop-opacity="0" offset="1"/>
 </linearGradient>
 <linearGradient id="b" x1="1383.8" x2="1681.8" y1="1159.4" y2="1010.2" xlink:href="#a"/>
 <linearGradient id="c" x1="448.11" x2="437.63" y1="482.56" y2="220.95" xlink:href="#a"/>
 <linearGradient id="d" x1="922.92" x2="838.93" y1="539.71" y2="351.4" xlink:href="#a"/>
 <linearGradient id="e" x1="728.22" x2="818.92" y1="479.49" y2="326.56" xlink:href="#a"/>
 <linearGradient id="f" x1="142.15" x2="335.39" y1="1704.3" y2="1704.3" gradientTransform="matrix(1 0 0 .98393 49.13 136.62)" xlink:href="#a"/>
 <path d="m425.46 1665.5h273.26v92.247z" fill="#808080"/>
 <path d="m685.83 1812.6c0 14.418-10.561 26.108-23.591 26.108h-621.45c-13.029 0-23.591-11.689-23.591-26.108v-106.17c0-14.418 10.561-26.108 23.591-26.108h621.45c13.029 0 23.318 11.692 23.591 26.108v106.17h2e-3z" fill="#fff" opacity=".5" stroke="#000" stroke-width="1.74"/>
 <text x="303.01" y="1727.58" font-family="PT Sans" font-size="22"><tspan x="303.01" y="1727.58"><tspan font-family="PT Sans Caption">немецкий фронт, 19 ноябр</tspan>я</tspan> <tspan x="303.01" y="1756.38"><tspan font-family="PT Sans Caption">немецкий фронт, 12 декабр</tspan>я</tspan> <tspan x="303.01" y="1785.18"><tspan font-family="PT Sans Caption">немецкий фронт, 24 декабр</tspan>я</tspan> <tspan x="303.01" y="1813.98">советское продвижение, 19-28 ноября</tspan></text>
 <g fill="none" stroke-linecap="round" stroke-linejoin="round">
  <path d="m37.49 1720.8h254.23" stroke="#526400" stroke-dasharray="64.28,32.14" stroke-width="16.07"/>
  <path d="m30.01 1749.7h271.27" stroke="#236400" stroke-dasharray="66.13,33.06,16.53,33.06" stroke-width="16.53"/>
  <path d="m38.96 1779.1h249.05" stroke="#007a48" stroke-width="15.84"/>
 </g>
 <path d="m144.26 1790.6v11.457c40.954.855 107.83-2.457 148.74-3.936v30.785c-40.885-2.385-107.81-3.936-148.74-3.936v11.457l-67.496-22.914z" fill="url(#f)" opacity=".7" stroke="#6f0000" stroke-width=".99"/>
 <text x="564.53" y="60.62" font-family="DejaVu Serif" font-size="64" font-weight="700">Операция «Уран»</text>
 <g transform="scale(1.0299 .97094)" font-size="15.54" stroke-width="1.12">
  <text x="38.97" y="1916.54" font-family="Liberation Sans">0</text>
  <text x="607.89" y="1916.54" font-family="DejaVu Sans"><tspan x="607.89" y="1916.54">1</tspan> <tspan x="618.93" y="1916.54">0</tspan> <tspan x="629.97" y="1916.54">0</tspan></text>
  <text x="315.63" y="1913.08" font-family="DejaVu Sans"><tspan x="315.63" y="1913.08">(</tspan> <tspan x="322.4" y="1913.08">к</tspan> <tspan x="332.88" y="1913.08">м</tspan> <tspan x="345.97" y="1913.08">)</tspan></text>
  <text x="38.97" y="1955.19" font-family="Liberation Sans">0</text>
  <g font-family="DejaVu Sans">
   <text x="592.52" y="1955.19"><tspan x="592.52" y="1955.19">6</tspan> <tspan x="603.56" y="1955.19">0</tspan></text>
   <text x="318.04" y="1955.42"><tspan x="318.04" y="1955.42">(</tspan> <tspan x="324.81" y="1955.42">м</tspan> <tspan x="337.91" y="1955.42">и</tspan> <tspan x="349.19" y="1955.42">л</tspan> <tspan x="360.28" y="1955.42">и</tspan> <tspan x="371.55" y="1955.42">)</tspan></text>
  </g>
 </g>
 <path d="m45.024 1867h596.24v13.446h-596.24zm0 6.723h596.24" fill="#fff" stroke="#000" stroke-linecap="round" stroke-width=".35"/>
 <path d="m104.68 1867h59.307v6.723h-59.307zm119.32 0h59.306v6.723h-59.306zm119.32 0h59.307v6.723h-59.307zm119.32 0h59.307v6.723h-59.307zm119.32 0h59.307v6.723h-59.307zm39.017 6.723h20.29v6.722h-20.29zm-575.94 0h95.639v6.722h-95.639zm191.98 0h95.639v6.722h-95.639zm191.98 0h95.639v6.722h-95.639z" stroke="#000" stroke-width=".35"/>
 <text transform="matrix(1.7294 0 0 1.7294 91.99 308.76)" x="-31.58" y="805.92" font-family="PT Sans Caption" font-size="13.88"><tspan x="-31.58" y="805.92">У</tspan> <tspan x="-16.16" y="805.92">с</tspan> <tspan x="-4.31" y="805.92">л</tspan> <tspan x="10.34" y="805.92">о</tspan> <tspan x="24.08" y="805.92">в</tspan> <tspan x="36.74" y="805.92">н</tspan> <tspan x="50.56" y="805.92">ы</tspan> <tspan x="68.64" y="805.92">е</tspan> <tspan x="89.17" y="805.92">о</tspan> <tspan x="102.91" y="805.92">б</tspan> <tspan x="116.88" y="805.92">о</tspan> <tspan x="130.62" y="805.92">з</tspan> <tspan x="142.24" y="805.92">н</tspan> <tspan x="156.06" y="805.92">а</tspan> <tspan x="169.55" y="805.92">ч</tspan> <tspan x="183.28" y="805.92">е</tspan> <tspan x="196.85" y="805.92">н</tspan> <tspan x="210.66" y="805.92">и</tspan> <tspan x="224.68" y="805.92">я</tspan> <tspan x="237.52" y="805.92">:</tspan></text>
 <text transform="matrix(1.7294 0 0 1.7294 91.99 308.76)" x="-35.74" y="782.25" font-family="DejaVu Serif" font-size="16" font-style="italic"><tspan x="-35.74" y="782.25">Л</tspan> <tspan x="-22.39" y="782.25">е</tspan> <tspan x="-12.92" y="782.25">г</tspan> <tspan x="-4.83" y="782.25">е</tspan> <tspan x="4.63" y="782.25">н</tspan> <tspan x="15.17" y="782.25">д</tspan> <tspan x="25.31" y="782.25">а</tspan> <tspan x="39.94" y="782.25">к</tspan> <tspan x="49.49" y="782.25">а</tspan> <tspan x="59.03" y="782.25">р</tspan> <tspan x="69.28" y="782.25">т</tspan> <tspan x="84.45" y="782.25">ы</tspan></text>
 <path d="m1714.5 82.752v1797.2h-1015.4v-213.99h-433.13v-33.233h-237.18v-1550z" fill="#fefee9" opacity=".7"/>
 <g stroke="#6fccdd">
  <g fill="none" stroke-linecap="round" stroke-linejoin="round">
   <path d="m31.778 249.59c12.575.421 16.404 3.792 24.217 3.878 14.781.164 17.324 1.497 27.999.913 6.315-.346 16.115-2.815 18.246-8.898.138-.393 10.083-15.83 16.123-16.2 8.46-.518 7.451.271 17.184-13.12 4.543-.744 7.571.414 22.757 16.028 4.571 3.312 15.209 9.365 24.284 5.533 4.186-1.768 15.753-4.314 21.895-3.08 1.797.361 16.168 15.113 27.733 18.253 22.664 6.153 20.791 2.135 25.412 2.167 3.058.021 17.404 8.832 23.289.171 4.085-6.012 13.271-10.742 19.971-10.667 1.389.016 10.795 3.618 20.369 3.65 7.095.024 21.084-12.115 25.014-12.321 9.073-.477 22.085 6.499 26.075 6.332 2.043-.085 3.902-1.249 5.905-1.654 1.198-.242 2.429-.285 3.649-.342 4.021-.188 8.054.165 12.076 0 3.391-.139 2.817-.574 20.104-1.369 12.902-.593 19.244-6.829 23.554-7.073 9.194-.521 18.633-.634 27.535 2.738 3.162 1.198 2.674 1.044 5.507 1.711 1.036.244 2.066.523 3.119.684 9.094 1.397 18.411-.121 27.601.343 17.866.901 44.842 15.877 49.828 16.542 2.09.278 1.601.381 4.511-1.027.726-.352 1.413-.813 2.19-1.027 7.25-1.996 15.079.437 22.559-.342 12.31-1.282 16.069-11.513 26.34-12.435 4.218-.378 17.221 5.298 22.293 9.069 9.58 7.123 2.237 6.947 20.435.286 12.858-4.707 20.93-8.88 21.033-8.898 5.341-.969 6.466 2.695 5.971 4.905-.267 1.193-5.798 6.623-4.578 7.986 1.218 1.361 16.229 3.744 16.852 13.519 1.405 22.032 1.574 14.83.863 28.121-.191 3.564 1.401 2.047-3.583 22.703 2.387 5.863 8.809 14.706 13.137 15.914 7.355 2.054 7.252 8.68 9.504 11.827 1.032 1.442 6.978-.685 9.14 1.92 1.19 1.435 15.538 7.822 26.94 14.204 4.455 2.493 30.83-7.399 39.076 25.725 8.117 32.606 6.191 34.965 18.644 35.593 15.693.792 10.589-2.505 23.288 13.062 1.479 1.812 5.412 5.608 6.701 5.818.53.086 2.925 1.749 9.952-8.214 11.043-15.655 6.178-9.648 15.526-20.136 14.832-16.64 37.337-13.529 45.582-27.037 4.238-6.944 2.688-4.889 2.654-5.248 1.778-15.805 9.083-16.815 9.554-24.528.199-3.269-4.823-19.082 19.772-37.761h7.032l4.048-.399c1.34.381.814.092 4.578 2.396 7.691 4.708 14.188 5.544 16.652 5.533 9.114-.042 18.209-9.974 22.228-10.438 15.657-1.812 13.071 1.744 27.401 5.077 15.74 3.661 23.039 11.976 24.217 16.428 3.426 12.935 14.73 22.99 16.721 30.175 3.07 11.086 17.971 22.927 18.976 32.855 1.774 17.552.198 20.817-3.583 23.843-8.73 6.985-10.67 16.814-4.977 23.273 6.529 7.405 5.068 20.869 8.36 31.601 1.362 4.441-3.107 30.822 21.032 33.711 2.164.259 18.032-2.417 19.904-3.308 13.414-6.381 15.885-6.836 26.606-6.389 5.065.211 10.058 1.648 15.127 1.597.608-.006 6.607-1.244 8.759-1.369 14.475-.846 17.892-1.252 26.074 9.469 9.281 12.16 16.035 16.327 16.455 24.642.443 8.801-4.192 11.623-8.228 10.667-1.671-.396-2.967-1.862-4.645-2.225-2.181-.472-4.836-.261-4.909 4.563-.233 15.246 3.24 8.056-9.555 20.307-9.066 8.68-6.926-.028-5.308 24.185.62 9.281.876 21.978-4.777 32.229-5.261 9.541-4.163 10.428-9.554 19.28-6.397 10.503-26.461 33.604-38.482 34.167-9.378.44-21.736-2.56-26.075-2.738-11.497-.47-10.012-3.205-37.288 10.04-1.861.904-5.57 2.663-5.771 2.738-2.466.911-5.17.989-7.697 1.711-3.771 1.078-8.826 5.762-9.422 10.153-2.366 17.477 6.31 22.721 6.393 23.173.87 4.696-3.953 16.949-6.308 18.071-4.496 2.141-26.073 16.601-25.897 17.265.362 1.365 10.463 5.756 8.164 16.045-.242 1.086-3.775 8.866-23.288 2.567-14.907-7.833-20.231-5.48-26.938 3.308-8.981 11.771-12.581 18.857-13.07 28.292-.245 4.719 12.458 30.829 17.185 34.111 2.269 1.576 1.18 2.313 13.07 5.476.801 7.462 15.506 12.662 17.383 30.346.572 5.385-27.968 32.896-28.131 32.97-12.406 5.645-18.63 13.886-18.977 19.565-.982 16.122-2.725 19.896-2.786 20.42-.279 2.392.822 11.407-3.782 22.531-5.175 8.268-5.707 11.385-14.265 25.27 0 0-3.017 10.305-6.502 14.089" stroke-width="7"/>
   <path d="m813.56 1070.2c4.822 9.327 3.537 12.814-3.308 23.465-8.244 12.825-1.71 25.532-1.393 32.818.866 19.887 5.014 23.62 5.224 25.748.98 9.929-2.475 11.722-3.134 22.153-.339 5.361-5.582 7.703-23.941 8.532-4.208.19-4.229 1.017 6.617 21.443-.586 3.533-12.561 2.822-23.244 13.21-1.992 33.229-1.18 15.833-.174 38.059.097 2.136.091 2.496 2.351 21.444 1.178 7.653.982 8.25 1.828 21.705.772-.103 1.393-.699 1.915 1.658-.546 1.254-9.211 14.104-9.837 14.408-1.83.889-7.544-2.17-11.84 12.424-1.599 5.433-6.629 12.41-2.699 24.438.549 1.68 1.096 1.475 16.342 16.217 3.936 3.805 8.85 8.605 14.999 14.693 11.711 11.596 11.072 18.434 12.797 24.773 2.384 8.76 8.213 9.374 21.764 17.534.193 3.451-2.034 3.367-14.564 14.564-.13 1.987 11.035 7.175 8.091 17.801-.981 3.542-13.812 5.405-15.374 11.328-.193 2.769 8.933 7.809 9.71 12.946.431 2.852-7.459 6.348-6.754 12.236-.358 6.489 5.7 16.227 13.276 15.754 16.383-1.022 14.322-1.115 30.208 27.992 4.399 2.712 6.945 8.308 8.184 9.244 5.06 3.82 8.527 3.551 11.535 2.021 7.974-4.056 7.909-2.972 9.489-2.059 5.89 3.403 8.659 2.606 10.795 1.497 3.943-2.048 5.851 3.126 25.29.973 8.234-.912 11.668-3.535 21.242-2.919 2.205.143 4.901-9.749 6.094-11.152 3.078-3.621 6.548-1.942 9.576-2.095 3.113-.157 4.413-.782 9.402-4.641 4.008-3.1 5.571-5.67 10.49-9.393 6.193-4.688 8.202-6.03 16.062-7.073 3.894-.517 11.007-2.521 10.839-6.886-.235-6.112-8.976-15.757-9.49-26.384-.4-8.283 1.428-11.786 3.657-13.621.63-.519 1.348-.934 2.089-1.272 1.423-.65 2.998-.895 4.483-1.385.836-.275 1.617-.732 2.481-.898.385-.073.963-.366 1.176-.037 0 0-.552 1.123-.827 1.684" stroke-width="6"/>
   <path d="m33.873 388.25c2.803-3.499 5.17-20.39 18.282-27.281 7.424-3.902 21.067-10.241 24.289-11.152.655-.185 5.517-4.417 20.371-1.01 4.937 1.132 8.003.835 22.287 9.767 1.567 4.853 7.365 12.961 17.281 18.599 9.015 5.125 8.825 10.491 28.686 19.048 2.547 6.453 18.021 12.89 25.464 14.108 10.854 1.777 12.045 2.431 25.552 14.146 12.347 10.71 26.427 15.955 28.729 23.95 2.876 9.988 10.552 21.308 14.016 28.404 2.734 5.6 2.795 7.498 10.186 22.565 2.789 8.586 6.038 13.09 18.326 18.188 11.833 4.909 15.735 11.008 22.33 13.173 2.83.929 6.094.777 8.619 2.357 1.341.839-.392 4.127-.392 4.266.002 4.412 8.477 7.608 14.538 8.42 15.673 2.1 13.228 2.976 13.451 7.073.425 7.819 2.438 10.544 3.395 14.819 2.896 12.928-.812 20.506 3.439 26.233 1.948 2.624 13.773 16.341 21.677 19.759 19.284 8.339 16.388 7.425 20.72 11.078 7.892 6.654 19.214 8.271 34.823 25.934 11.737 13.281 7.945 21.898 4.527 25.448-.672.698-5.923 2.339-2.568 23.314 1.01 18.295 1.292 15.931-6.791 20.957-2.375 1.477-14.098 14.324-15.322 16.129-5.927 8.741-15.746 14.433-18.108 16.803-7.852 7.878-8.212 4.593-7.313 24.475 1.428 31.563 5.203 33.114 5.572 40.753.002.061 3.486 29.524 8.575 38.283 5.886 10.133 6.624 14.455 9.358 17.776 4.194 5.094 15.061 14.408 17.629 18.375.797 1.23 31.785 24.648 31.907 25.036.566 1.8.023 6.749-4.396 8.944-3.743 1.859-5.095 4.387-.348 11.826.698 1.093 6.423 6.786 6.66 12.312.004.097-1.649 3.905 1.784 12.499 5.662 5.916 19.069 12.954 25.508 13.21 16.59.66 22.468-7.826 33.604-11.04 6.969-2.011 19.148 3.112 21.808 1.235 11.203-7.908 13.339-14.205 21.373-14.595 5.943-.289 11.093-.388 20.284-4.603 24.46-11.218 16.815-8.482 33.735-18.524 19.155-11.368 21.901-11.318 23.897-11.452 2.228-.148 10.22 1.573 22.287.898 11.094-.62 21.913 5.385 33.343 5.838 8.232.326 16.214-.857 20.938-.225 8.005 1.072 2.926-.486 8.793 2.919 21.975 12.755 19.876 13.748 20.284 16.728.384 2.805-1.27 4.618-7.337 7.372-3.482 1.198-3.687 1.367-4.179 2.283-.75 1.397-.305 3.731 2.089 2.358.905-.519 1.598-1.353 2.481-1.909 2.871-1.809 3.854-1.561 5.528-.936 5.048 1.884 9.329 10.387 16.584 12.499 15.793 4.599 21.594 13.648 24.768 14.632 9.35 2.9 6.626 2.65 20.066 14.295 4.389 4.024 5.4 6.012 13.973 14.669 1.49 10.675-6.437 34.342-5.224 57.818.126 2.505-.151 1.738 30.166-20.058 2.027.022 6.01 3.569 6.268 3.479.077-.027.687-1.328 1.349-2.994.183-.458.803-.979.522-1.385-.099-.143-.348 0-.452 2.649 7.07.608 11.291 9.891 13.363 10.403 2.867.71 4.652-.422 5.093-4.304.623-5.482 2.699-7.508 5.789-7.821 2.203-.224 5.58.178 23.375 19.872.182 1.616-2.317 3.743-5.92 21.255.312 1.378 13.463 22.316 22.156 22.716 9.478.437 5.083 4.921 14.854 24.075 15.973 0 25.234 5.432 28.587 7.996 9.104 6.963 15.41 4.637 20.72 9.244 4.862 4.218 8.397 4.971 28.25 6.885 3.436.332 6.833 1.726 16.193 13.098 2.721-.314 8.659 4.178 20.719 3.519 16.388-.897 17.597 1.553 19.937 5.613 1.25 2.169 1.476 2.82 12.102 14.146 3.9 4.158 5.208 9.878 14.103 13.173 3.822 1.415 7.665 4.184 10.534 5.538 2.946 1.391 3.651.677 16.454 5.951 8.335 3.434 13.207 7.79 13.581 7.934 1.946.744 16.078-3.112 17.324-3.032 23.617 1.536 29.61-3.812 30.818-3.518.339.083 13.577 9.631 20.458 8.758 0 0 14.295-1.077 22.549 6.511" stroke-width="5"/>
   <path d="m782.5 1382.7c-4.625 7.58-13.192 10.065-16.178 10.792-4.672 1.135-4.184.775-6.877 2.731-1.225.89-7.272 1.457-7.313 4.902-.066 5.644 8.245 11.353-.348 38.021-2.089 3.648-3.584 7.687-14.539 18.486-2.628-.496-2.527-6.882-34.213 6.138-8.811.01-12.549-10.613-19.153-11.451-9.699-1.231-26.292 12.803-31.732 13.621-1.516.229-16.209.901-27.379 4.267-6.057 2.794-19.921 6.739-23.332 6.886-3.176.137-9.303 1.98-25.16-8.233-5.347.01-11.16 2.375-11.84 2.47-3.653.514-11.766-3.929-12.188-3.967-24.333-2.148-31.009 6.393-32.995 12.5-3.92 12.055-12.074 14.056-31.253 20.357-4.895 1.608-4.657 1.156-9.968 5.464-1.515 1.228-5.174 2.409-9.664 5.089-9.398 5.611-21.378 7.641-23.288 7.635-6.202-.017-13.02-14.981-16.976-15.418-2.713-.3-7.194.811-8.75.898-3.349.187-27.654 17.957-27.641 20.17.018 3.047-2 7.604-20.11 27.431-3.151 11.453-13.074 23.329-13.232 24.101-2.538 12.382-3.792 13.539-15.279 16.391-17.945 4.457-19.446 4.427-20.371 4.491-2.342.163-1.009-2.734-21.765 6.699-8.688 3.948-10.519 10.359-20.981 9.842-3.881-.192-4.556-1.296-5.441-2.882-.352-.631-.492-1.359-.783-2.021-.692-1.573-.43-1.411-1.959-1.198-3.234.451-5.72 3.736-13.015 4.005-6.894.254-3.07 3.449-23.375-13.548-8.823-7.385-21.903-7.945-27.597-11.227-.943-.543-3.524-2.516-4.657-2.956-.536-.208-1.117-.282-17.238-10.853-.509-2.582 1.525-5.663.131-7.896-1.065-1.705-7.312-1.674-9.489-.037-.447.336-2.516 4.241-4.614 5.352-2.195 1.162-7.813 3.381-10.186 3.668-10.859 1.313-22.828-5.006-24.506-4.754-.737.111-5.323 5.078-23.854 8.196-14.631 2.462-19.795 1.722-22.983.674-16.066-5.281-21.338.902-23.767.897-6.428-.012-8.594-5.551-10.055-5.838-.603-.117-3.153-1.128-11.231 3.93 0 0-14.532 12.309-16.064 13.68" stroke-width="7"/>
   <path d="m775.43 1299.4c2.989-.212 5.463-.385 6.39-2.191.658-1.283 1.207-5.226 3.354-5.831 3.653-1.032 6.18.439 6.952.483 2.925.162 3.775-1.777 4.329-3.689 1.752-6.059 3.324-5.88 19.45-4.817 3.959.173 6.155-2.65 21.005 2.724 4.489 1.623 1.314 1.52 22.579-4.592 4.46-.188 11.088-.763 20.574 7.975 5.313 4.894 12.061 14.01 30.129 24.244 1.959 2.996 4.119 3.596 29.812 3.399 3.781 2.138 3.491 1.667 22.616-1.402 10.909-1.11 4.185-2.831 11.749 1.482 5.897 3.363 10.051-.069 15.309-.419 1.094-.073 7.051 3.205 9.818 1.062 5.171-4 8.272-4.435 13.66-4.252 23.666.802 24.116 3.412 26.214 4.816 5.357 3.587 7.454 6.59 10.024 9.005.517.485 1.399 1.229 3.86 2.416 1.224.591 2.336.286 2.941 0 .157-.073.488-.126.431-.29-.109-.312-.665.029-.992.081 0 0-1.462.296-4.16 1.112m-670.81-362.63c15.318 15.639 19.567 12.943 20.31 12.974 10.899.453 12.669 6.078 16.431 15.278 3.816 9.333 2.66 22.684 28.914 35.286 1.729 5.607 7.688 7.8 3.208 32.071-3.021 16.373-1.775 18.667 21.403 36.862.401 6.924-1.249 7.766-14.598 15.461-4.635 2.933-5.576 6.449-13.399 14.913-1.827 2.318-3.539 4.185-6.664 21.584.302 1.145 3.28 8.04 6.1 21.766.642 3.127 6.203 25.718 6.276 26.343.982 8.298-4.841 14.55-15.515 24.676-.292 5.038 1.385 7.345 4.584 10.094 3.68 3.164 5.479 8.56 11.001 9.458 8.395 1.366 7.578.662 13.188 9.367.87 1.351 3.353 13.85 8.251 13.43 14.712-1.263 15.298-.375 24.33 15.369 6.39 11.141 1.323 20.354 3.526 58.354.499 8.613-.808 13.097-4.126 21.099-3.08 7.427-3.685 17.458-9.097 21.735-6.002 4.742-4.467 15.784-6.841 20.704-3.974 8.233-3.445 1.203-2.221 23.372.401 7.264.533 9.722-4.619 21.432-5.274 11.988-4.955 9.445-3.914 20.401.055.576-10.258 44.5-11.104 45.753m245.73 220.23c16.566-.001 22.888 4.841 25.859 5.067 9.494.721 35.567-6.93 36.984-6.778 2.985.321 16.631 19.755 32.71 19.698 3.836-.014 7.42-1.991 22.838 2.724 7.24 7.368 6.873 6.655 21.144 6.334 3.962-6.4 3.454-6.659 19.892-6.017 21.491.838 24.467 5.676 29.543 6.017 15.978 1.073 17.676 3.987 22.027 3.483 23.288-2.693 23.791 1.685 31.68 10.704 9.757 11.158 9.364 10.075 22.912 2.851 8.311-12.775 10.869-14.842 59.158 14.061 6.392 1.315 10.8-2.633 7.883-6.587-2.973-4.03-2.551-2.729-1.473-4.751.781-1.467 3.458-4.322 5.967-2.66 16.07 10.647 19.178 13.814 18.639 15.962-3.886 15.507-2.116 16.411 2.947 18.938 1.525.761 20.199 7.094 22.839 7.347 11.333 1.081 26.163 6.651 28.143 12.794 3.815 11.838 8.91 14.048 8.325 19.064-1.19 10.199 1.098 11.02 5.23 12.352 2.387.769 4.925.953 7.367 1.52 0 0 6.297 1.369 11.42 4.94m-730.7-364.86c9.593.626 12.554 9.251 14.335 10.691 4.639 3.754 10.579 4.903 14.104 7.188 29.167 18.901 27.004 26.491 28.809 29.108 5.416 7.85 11.205 9.902 17.855 10.273 16.763.937 22.221-3.101 23.575-3.026.829.045 3.701-.914 11.973 16.704 7.231 15.401 17.204 19.099 17.369 21.662 1.377 21.405 2.043 20.918 4.076 25.664 0 0 4.021 14.66 6.021 17.361" stroke-width="5"/>
  </g>
  <path d="m1713.4 1011.5c-6.286-4.573-12.372-5.756-16.654-5.423-16.185 1.257-17.127 3.952-20.902 10.558-25.479 2.967-27.787 2.391-28.474 2.061-5.706-2.741-9.766-2.037-11.481-.759-1.801 1.342-3.176 3.235-5.09 4.411-2.912 1.79-3.116 1.731-4.626 1.735-3.624.01-11.592-2.84-23.048-12.8-2.989-2.599-14.514-14.97-17.664-19.778-4.479-6.838-23.561-.832-23.637-.832-3.837-.007-12.424-3.85-24.015-4.483-9.802-.537-13.935 4.439-24.729 1.663-6.805-1.75-8.856-3.698-10.684-7.268-6.112-11.946-4.877-10.283-6.897-13.885-8.114-14.463-15.714-15.519-18.379-15.295-7.016.589-22.266 11.437-31.922 4.99-.839-.56-2.161-2.13-26.833-8.931-9.379-2.585-16.754-19.954-17.033-24.624-1.543-25.745.215-7.934-1.01-26.07-1.094-16.197 3.719-19.829 7.318-21.948 2.373-1.396 4.719-7.945 15.225-16.126 4.158-3.238 10.393-9.815 12.87-15.367 3.978-8.916 23.087-23.732 24.142-33.88.262-2.532 4.453-13.079 8.579-18.332 4.054-5.161 3.735-11.685 10.179-26.793 3.021-7.088 3.09-13.945 6.056-23.72.701-2.311 3.048-8.71 4.121-33.374.43-9.851 6.489-13.396 12.996-16.778 3.984-2.071 10.853-12.843 14.974-16.741 24.511-23.188 20.86-31.143 20.902-31.277 4.207-13.594 21.853-19.327 31.333-27.914 5.827-5.278 7.358-9.632 7.948-22.852.112-2.508.92-14.747 9.422-29.36 2.541-4.37 12.111-12.353 19.178-24.371 3.27-5.559 3.036-7.694 7.15-16.452 2.056-4.376 2.174-5.731 4.5-12.041 2.884-7.818 3.849-10.548 3.154-23.72-.391-7.402-7.129-16.535-7.57-25.925-.43-9.138-.812-11.052 6.435-25.998 1.563-3.224 3.079-6.473 4.5-9.763 1.836-4.249 1.313-3.141 2.019-4.267.875-1.395 1.916-2.682 2.776-4.086 1.392-2.271 12.614-13.762 13.038-23.25.318-7.14-.268-14.3 0-21.441.379-10.109 2.113-15.689 9.715-23.647 13.153-23.425 21.807-41.245 21.828-41.329.602-2.304 5.595-15.577 11.986-25.672 9.381-14.815 9.36-15.406 10.053-17.5 3.576-10.821 4.814-10.498 6.309-20.212 0 0 6.168-11.852 6.225-12.149l4.71 1.373c1.357 4.278 3.354 1.39-6.099 25.274-3.108 7.854.108 1.638-11.734 27.371-.464 1.009-6.826 15.27-7.233 22.093-.431 7.229-4.035 18.225-8.285 22.779-7.046 7.552-10.967 20.533-15.688 25.492-6.812 7.154-4.635 2.33-9.757 20.754-4.526 16.281-4.516 18.922-5.342 22.202-1.468 5.831-3.908 22.632-12.575 50.295-4.462 9.465-8.727 21-9.253 30.518-1.292 23.406-1.588 14.771.758 23.72 1.28 4.887 2.367 7.148 5.3 22.418.827 14.988-1.789 25.446-11.062 31.096-16.51 10.06-14.15 14.717-14.509 22.454-.493 10.619-3.964 16.791-13.501 20.104-6.655 2.312-7.955 4.003-8.201 8.533-.142 2.604 1.712 9.369 2.019 16.85.358 8.755.642 15.047-3.07 24.551-3.999 10.241-9.331 16.645-14.258 19.67-5.926 3.64-6.101 6.34-24.604 15.259-4.302 2.074-11.504 3.368-15.729 7.195-1.463 1.325-4.072 11.648-7.444 15.729-3.018 3.651-21.507 41.202-21.534 41.654-.346 5.771 6.721 11.047 7.234 20.357.563 10.202-17.479 22.746-18.842 26.251-1.052 2.703-7.599 18.674-12.702 22.418-7.704 5.652-12.938 16.981-16.612 20.14-6.234 5.36-9.954 16.318-10.052 18.224-.556 10.853 3.767 14.384 9.842 18.513 8.97 6.097 10.868 11.251 16.612 16.126 22.792 19.342 19.623 18.005 21.996 26.901.248.929.517 1.853.758 2.784.177.685.312 1.38.505 2.061.149.536.341 1.059.504 1.591.364 1.185.665 2.389 1.01 3.58.315 1.091.699 2.162 1.009 3.254 1.175 4.134.962 3.248 1.262 5.677.436 3.519 1.943 5.095 4.543 6.147 6.264 2.536 11.293 10.227 17.832 14.572 5.968 3.965 19.488 9.178 23.679 11.715 11.308 6.846 13.455 6.329 25.613 3.398 9.478-2.284 25.383-4.261 27.128-4.267 3.751-.012 9.765-.224 25.697 15.331 14.546 14.202 11.054 11.25 23.342 15.837 21.063 7.863 21.461 1.725 22.711.47 14.85-14.908 18.309-13.695 19.852-14.427 0 0 18.415-6.042 16.696-6.508z" fill="#6fccdd" stroke-linecap="round" stroke-linejoin="round"/>
  <g fill="none">
   <path d="m929.08 1013.7c-3.209 6.948-4.601 7-7.033 7.415-2.075.354-3.353.707-9.753-4.278-6.69-5.212-.326-1.533-18.379-10.438-9.311-4.593-11.205-4.784-23.819 6.389-8.385.501-8.171-.425-11.876 23.102 0 0-.07 2.588-1.592 17.512" stroke-width="6"/>
   <g stroke-width="5">
    <path d="m503.79 81.925c12.159 10.046 19.452 10.56 21.345 11.587 4.197 2.278 13.479 7.734 31.471-2.093 10.951-5.981 14.148-7.68 20.145-7.432 2.242.094 12.586 3.187 4.904 22.385-7.918 9.208-22.373 7.43-25.861 23.144-1.464 6.593-3.33 8.725-15.7 20.687-6.372 7.558-7.989 7.824-33.835 20.747-2.076 20.381-1.495 15.663-6.527 19.867-7.146 5.971-7.522 3.063-14.253 33.82 0 0-1.382 8.653-3.281 11.01"/>
    <path d="m1072.9 1329.7c1.833 0 7.677-1.83 12.573.452.553.257 4.467 3.978 9.688 4.252 10.678.562 12.853-2.231 25.483-8.248 1.614-.054 9.884 5.519 22.897 5.478 2.328-.01 6.695 6.636 20.255 13.145.054.025 2.806 1.236 18.757 7.427 0 0 6.135-.42 29.681 14.676" stroke-linecap="round" stroke-linejoin="round"/>
   </g>
  </g>
 </g>
 <path d="m1503.03 1083.61c6.127 2.947 9.777 9.479 10.871 16.039.947 5.687 1.535 16.47-5.259 18.705-4.329 1.424-6.141-.66-6.704-4.583-.577-4.018-.129-5.118-2.493-8.562-4.219-6.144-6.658-13.719-2.415-20.6m7 85.001c-5.758-7.103-5.833 8.164-6.025 11.604-.291 5.181-2.754 18.719 2.209 21.253 11.015 5.623 11.197-24.479 7.816-29.856m2 90.999c4.676-5.186 4.018 15.563 4.008 18.203-.031 8.24 2.079 11.651 6.415 18.395 2.867 4.459 7.236 9.088 9.444 14 2.658 5.914-1.684 14.805-8.696 11.231.286-2.382-1.636-3.573-2.364-5.636a22.905 22.905 0 0 0 -1.613-.364c-.284-2.702-2.261-3.716-3.215-5.85-.695-1.557-1.451-4.247-1.74-6.013-.731-4.478-1.981-8.056-3.28-12.423-2.297-7.722-3.786-17.485-1.958-25.544m22.999 81.001c-1.828 2.4-2.784 9.386-3.005 12.494-.336 4.728 1.112 7.142 2.176 11.335 4.1.014 8.037 1.667 12.655.997.464-3.042 3.374-3.346 3.194-6.767-.093-1.768-2.573-4.543-3.067-6.582-.636-2.624-.898-5.86-1.959-8.501-1.445-3.6-3.369-3.195-6.018-5.104-.735.01-1.062.385-.977 1.127m21.001 50.001c-.031-3.523-1.375-6.614-1.147-9.853-8.676-2.794-13.973.526-11.801 9.413.959 3.926 1.199 6.092 4.028 8.858 2.916 2.851 5.005 4.77 6.418 8.746 1.439 4.047.127 8.679 1.402 12.335 2.355 6.752 6.183.523 6.752-3.212 1.327-8.72-1.823-13.491-4.652-21.288m52 224.001c1.619-4.421 2.613-13.077-1.489-16.491-6.169-5.136-8.334 3.206-8.438 7.78-.145 6.283-2.342 10.187-4.46 15.701-2.273 5.922 1.114 9.553 4.581 13.812 4.829 1.637 2.414 8.708 4.834 12.33 2.482 3.715 9.234 4.527 12.349.869 6.925-8.137-1.676-20.243-6.425-26.651.031.55.048 1.099.049 1.649" fill="#6fccdd"/>
 <path d="m1570 1455.6c1 2 1 9 3 12 13-4 16 16 17 27 7-4 7.666 4.334 10.666 5.334-3-1 11.334 5.666 9.334 2.666 8.666 8.334-6 12-4 20 1 2 7 7 8 10s2 7 3 11c2 7 4 19 11 22 7-21 12 9 15 13 6 10 19.334 15.334 24.334 25.334 3 6-3.334 11.666 3.666 15.666 5 3 10-2 15 2 4 4 5 13-3 10-5-1-2-9-9-11 4 0 9.666 4.667 10.666 8.667 0-2-2.666-5.667-3.666-7.667" fill="none"/>
 <path d="m1567.6 1456.2c1.555 4.117 1.078 8.625 3.252 12.597.539.987 1.761 1.428 2.822 1.148 11.609-3.049 13.137 17.158 13.836 24.59.182 1.936 1.97 3.049 3.762 2.158 4.312-2.142 4.874 3.73 8.143 5.334.643-1.523 1.285-3.047 1.927-4.569-.354-.106-.705-.147-1.073-.189-1.939-.224-3.042 2.271-2.158 3.762 1.427 2.407 6.594 3.571 9.038 4.335 2.946.922 6.969-.3 5.021-4.092-1.309 1.01-2.617 2.02-3.926 3.029 4.625 4.845-1.787 8.347-3.98 12.772-2.768 5.585 1.332 8.974 4.85 12.798 5.121 5.567 5.65 15.335 7.673 22.475 1.669 5.889 4.187 12.428 9.964 15.346 1.506.761 3.12.089 3.672-1.494.314-.898 1.904-5.485 2.561-5.558.161-.017 1.468 2.456 1.711 2.941 1.732 3.469 2.736 7.334 3.965 10.999 3.46 10.326 12.667 15.877 20.394 22.877 2.581 2.339 5.089 5.075 6.392 8.354 1.045 2.633-.38 6.096-.362 8.858.037 5.849 6.384 8.639 11.386 8.279 3.929-.281 7.68-1.404 9.56 3.135.36.871.491 1.762.513 2.692.041 1.829-3.357.423-3.9-.364-1.131-1.642-1.392-4.088-2.286-5.905-1.136-2.307-3.381-3.538-5.677-4.384-.221 1.637-.442 3.273-.664 4.91 3.549.324 7.133 3.529 8.256 6.831 1.055 3.104 5.319 1.814 4.821-1.329-.483-3.045-2.471-5.611-3.918-8.264-1.545-2.831-5.862-.308-4.318 2.523 1.238 2.269 3.003 4.475 3.415 7.069 1.607-.442 3.215-.886 4.821-1.329-1.896-5.575-7.183-9.964-13.077-10.502-2.992-.273-3.136 4-.665 4.91 3.481 1.283 3.536 5.08 4.975 7.992 1.162 2.35 3.898 3.143 6.26 3.577 5.682 1.043 7.597-4.304 6.544-8.895-.489-2.138-1.962-5.023-3.852-6.243-4.064-2.625-7.643-1.652-12.171-1.328-7.231.519-4.204-7.645-4.478-11.633-.253-3.7-2.903-6.938-5.21-9.633-5.844-6.831-14.233-10.986-19.521-18.376-2.684-3.751-3.531-8.773-5.091-13.048-1.273-3.489-2.886-8.293-6.778-9.585-4.828-1.603-7.342 5.996-8.424 9.096 1.224-.497 2.447-.995 3.672-1.493-6.336-3.202-7.66-12.155-9.275-18.383-1.739-6.707-2.676-13.345-7.35-18.657-1.985-2.257-5.326-4.198-3.691-7.497 1.022-2.062 2.845-3.779 4.234-5.602 3.295-4.322 2.119-8.772-1.412-12.471-2.033-2.13-5.188.572-3.926 3.029-2.04-3.972 3.841-2.372.625-3.252-.968-.266-1.908-.643-2.844-1.004-.926-.357-1.831-.764-2.731-1.18-1.044-.481-1.244-1.153-.475.145-.72 1.255-1.439 2.509-2.159 3.763-.085 0-.17.01-.256.011 2.684.807 4.496-3.309 1.926-4.569-1.986-.975-2.788-3.999-4.635-5.374-2.75-2.047-5.682-1.387-8.555.041 1.254.719 2.508 1.438 3.762 2.158-1.043-11.081-3.905-33.682-20.165-29.41.941.383 1.883.766 2.823 1.148-1.927-3.523-1.359-7.725-2.748-11.403-1.131-2.983-5.966-1.689-4.825 1.333z" fill="#6fccdd"/>
 <g fill="none">
  <g stroke="#888" stroke-linecap="round" stroke-linejoin="round">
   <g stroke-width="4.18">
    <path d="m31.396 485.95c16.789 14.434 23.461 27.316 25.196 33.506.483 1.724 17.771 38.956 18.124 39.396 4.673 5.833 3.689 3.61 10.461 23.181 8.764 23.649.33 5.937 20.187 45.35 1.925 3.821 8.414 11.767 13.998 30.719 3.819 12.963 8.232 24.53 13.188 32.936 35.212 59.731 36.284 88.132 36.467 91.143 1.439 23.586-3.29 25.074-3.536 29.325-.672 11.604-15.358 28.006-16.208 42.183-1.799 30.018-.624 26.799 5.6 33.569.463.504 3.746 5.265 15.029 18.305.497.976 6.008 8.513 7.368 18.748 2.242 16.878 1.567 16.321 3.094 21.345.59 1.942 1.364 3.838 1.768 5.827.25 1.229.369 2.485.442 3.737.418 7.081-.403 14.199 0 21.281.151 2.651.907 5.232 1.327 7.854.429 2.678.797 11.913.884 12.351 1.724 8.751 2.117 14.429 1.326 27.615-1.562 26.051 14.73 65.201 14.734 65.302.724 16.618 3.318 18.588 3.536 22.294.531 8.998 3.398 24.629 5.747 27.552 8.037 10.003 3.343-.83 7.073 20.142 1.625 9.136.761 18.543 1.326 27.806.242 3.966 3.925 13.409 9.43 20.521 3.769 4.869 10.854 25.727 17.976 33.507 19.791 21.619 14.645 17.173 23.06 22.041 3.381 1.956 7.805 5.63 15.545 15.074 6.54 7.98 3.447 3.35 21.512 25.589 12.544 15.441 21.594 13.085 23.428 25.018.081.526-1.633 9.378 7.515 29.325 0 0 5.368 18.229 8.398 25.462 0 0 4.951 19.032 14.495 33.471 8.248 12.479 21.089 20.366 21.089 20.366 8.421 5.808 49.486 19.542 50.002 20.815.497 1.228-4.642 11.922-9.073 24.289-7.986 22.293-38.307 30.561-46.984 30.96-13.478.619-24.48.564-26.876.448-6.721-.326-13.464-.304-20.186 0-4.659.21-7.404.149-23.428 6.08-15.494 5.734-17.932 3.826-31.016 7.221-5.091 1.32-12.52 3.637-30.869 1.899-34.245-3.241-45.757 4.423-48.771 8.171-8.75 10.88-22.539 9.284-24.164 11.274-6.174 7.558-8.479 8.443-19.597 10.577-12.84 2.465-5.181 4.87-39.415-6.461-2.742-.907-18.983-10.192-33.153-10.894-18.477-.914-16.424-1.655-21.07-4.56-3.242-2.028-3.408-2.136-5.82-3.421-2.232-1.189-4.707-1.887-6.925-3.104-1.647-.903-5.116-5.634-9.799-5.891" opacity=".75"/>
    <path d="m459.29 1394.1c3.105-4.977 5.432-15.243 5.746-16.15 3.343-9.648 3.322-10.528 4.42-14.188 2.201-7.331 1.135-12.191 7.735-21.471 12.711-17.869 10.077-13.225 10.683-23.499 1.387-23.538 13.057-29.4 20.481-45.35 1.534-3.295 19.617-17.102 28.658-17.607 20.806-1.163 20.624-.119 23.281-.38 18.43-1.309 16.105-.54 25.638-4.181 13.835-5.283 27.548-9.121 32.932-12.477 30.144-18.795 23.884-17.603 31.311-26.919 7.943-9.964 7.112-7.97 16.871-20.459 6.813-8.718 15.207-17.134 34.92-29.388 0 0 3.042-3.655 44.942-28.983l23.646-24.03c6.872-5.595 23.182-22.187 25.123-27.109.843-2.14 5.475-7.815 14.513-15.707 3.838-3.352 6.346-6.274 8.399-9.311.495-.732 4.203-7.307 5.525-9.185 9.226-13.099 22.705-30.769 45.824-44.906 15.338-9.38 13.743-12.016 25.049-19.825 46.131-31.863 30.049-17.724 44.939-39.396 2.932-4.267 4.479-8.168 5.305-23.815.033-.63 8.077-31.671 8.841-44.399 1.114-18.6 1.775-18.711 1.769-20.395-.036-7.923-7.324-12.914-34.7-31.986-25.462-17.739-25.31-20.124-27.186-21.915-17.177-16.403-13.236-13.997-25.564-30.972-32.169-39.713-31.631-38.578-42.877-61.564-3.126-6.39-7.754-12.795-13.04-24.766-7.431-16.826-26.534-38.476-35.362-59.41-8.101-19.209-2.817-8.559-13.703-28.629-5.355-9.874-6.451-13.088-5.305-32.872 1.783-30.761 20.576-43.215 26.375-60.868 0 0 8.837-11.551 9.514-24.385l-2.063-17.038c1.768-5.827-.184-6.139-.231-8.36-.143-6.803.863-11.22-28.658-21.789-19.996-7.158-24.994-30.787-34.917-40.409-13.52-13.109-25.626-24.766-40.155-27.869-15.545-3.32-27.169-8.965-22.838-30.528 1.585-7.896 1.801-12.558 1.326-21.155-.249-4.509-2.859-14.452-11.051-25.525-10.598-14.326-40.024-18.691-44.424-18.685-3.432.005-15.032 2.163-18.492 3.42-.59.214-3.961 2.884-13.556 6.08-31.122 10.368-69.726 47.841-73.967 53.837-1.052 1.487-9.041 20.908-9.356 21.852-1.579 4.725-3.443 22.69-7.513 36.485-6.419 21.759-44.032 13.866-45.089 13.868-4.76.01-32.679-3.809-34.331-4.18-8.46-1.905-18.583.209-20.555 0-2.21-.235-14.46-3.947-20.26-4.18-3.021-.122-4.587-.9-22.691 3.42-18.318 4.371-18.331 14.813-21.962 28.642-12.07 10.546-15.423 31.815-22.869 38.594-30.145 27.444-36.176 13.985-45.417 25.934-7.234 9.353-14.771 10.985-34.184 13.998-18.528 2.875-19.646 3.203-22.323 3.8-9.904 2.209-24.994 10.889-30.795 14.821-3.848 2.608-3.962 6.867-29.101 13.554 0 0-3.882 2.252-23.87 3.42-11.155.652-22.459-1.207-33.521.38-11.748 1.686-14.205.958-28.363 28.185-5.531 10.636-24.379 20.305-26.08 22.865m1688.2 516.66c-20.365 4.146-23.262 5.095-24.559 5.425-20.489 5.22-22.085 5.788-31.936 17.358-31.914 37.484-20.539 21.244-30.141 38.931-1.598 2.943-14.869 21.403-17.229 25.87-5.076 9.603-12.771 19.586-20.628 24.911-22.153 15.016-26.199 33.494-28.004 47.818-6.642 52.707-20.414 62.482-20.871 71.019-.27 5.047 3.697 18.744 8.932 32.797 7.774 20.875 7.927 21.21 10.191 33.674 2.109 11.604 4.791 22.342 12.862 38.055 5.54 10.785 13.165 15.846 28.927 35.008 3.712 4.514 8.031 9.921 13.444 18.151 11.396 17.33 7.763 10.868 10.774 19.11 3.708 10.149 4.601 24.146 11.405 31.588 7.813 8.544 2.9 2.132 13.542 17.024 7.928 11.095 6.335 9.228 9.756 13.895 8.411 11.479 5.173 6.976 8.93 12.602 3.751 5.616 10.682 10.067 23.588 26.497 14.717 18.734 11.541 15.634 15.774 20.612 0 0 3.241 3.901 3.688 6.593" opacity=".75"/>
    <path d="m1712.8 1026.2c-2.682.206-6.286.924-7.571 1.001-2.697.162-5.406-.12-8.106 0-1.997.089-2.792.202-5.436.751-.95.197-14.78 4.558-33.197 4.257-17.299-.282-19.087.311-27.277-.167-5.73-.335-8.593-3.092-25.918-4.006-2.863-.151-11.953-.84-21.986-8.722-3.915-3.075-7.002-6.688-22.52-12.351-8.391-3.061-17.84-11.056-33.053-11.809-24.361-1.205-22.365-3.418-29.461-5.675-11.822-3.76-11.67-4.743-37.323-11.016-3.958.22-4.805 4.138-4.805 23.283 0 5.261 5.578 11.211 6.212 21.781.798 13.296 11.126 20.485 13.396 42.436 2.05 19.824 6.072 26.387 9.221 38.055 12.58 46.608 34.282 74.637 34.849 85.874.642 12.727-9.395 25.651-9.707 32.379-1.146 24.691-10.893 30.075-11.843 42.979-.473 6.431 3.266 26.955 3.495 33.464.179 5.073-.213 10.158 0 15.23.048 1.158.142 2.314.291 3.464.256 1.966.763 3.903.874 5.883.427 7.616-.143 5.769-1.165 24.577-.1 1.824-1.781 13.96-4.659 21.865 0 0-9.333 20.546-9.707 23.658l-26.986 55.913c-2.718 4.507-5.674 9.985-7.377 13.52-2.233 4.638-4.736 9.54-8.396 11.518-6.738 3.639-12.338 10.312-24.17 24.576-12.546 15.124-12.531 16.838-16.065 19.987-5.126 4.568-12.224 14.598-12.522 18.985-.434 6.374-3.399 21.442-14.609 35.76-14.314 18.284-16.581 18.851-16.841 23.033-.89 14.333 1.925 19.647 2.329 23.408.346 3.206 2.299 8.078 1.165 24.869-.104 1.545-.195 2.202-2.523 26.497-.467 7.652-10.94 16.99-12.522 27.288-.144.94-.242 1.889-.291 2.838-.329 6.432.273 12.886 0 19.319-.318 7.502-3.004 17.529-5.873 20.363-1.512 1.493-8.189 16.154-14.9 19.819-10.511 5.742-14.339 12.024-19.851 14.854-15.345 7.884-19.533 8.055-20.724 8.555-18.751 7.873-13.705 13.135-19.997 24.493-12.305 22.212-51.177 40.607-52.224 41.435-3.048 2.408-12.789 9.412-17.521 12.309 0 0-19.238 13.557-19.947 15.689" opacity=".75"/>
    <path d="m1490.9 1385.2c8.281 20.343 13.055 31.666 13.23 35.399.564 11.997 5.181 19.722 10.532 28.791 5.467 9.265 3.204 11.569 11.26 32.339 7.495 19.318 6.205 18.104 6.358 26.162.416 21.833.515 43.68 0 65.511-.049 2.06-.158 4.118-1.164 39.515-.04 1.143-2.046 15.914-2.33 23.576-.346 9.336.46 11.51 28.539 53.493.236 5.503-.289 9.637-3.835 26.162-4.335 20.202-9.376 24.803-10.969 28.207-1.112 2.378-2.403 5.283-10.63 25.662-1.237 25.604.764 51.279 0 76.902 0 0-.586 19.103-5.823 34.675m-824.76-175.59c10.973 0 20.934 7.357 26.209 11.768 13.184 11.021 20.366 11.507 29.558 11.767 43.723 1.238 47.322 12.209 47.71 19.778.604 11.813 7.321 24.384 24.073 28.207 19.315 4.408 28.838 5.683 30.917 5.758 12.504.454 24.851 2.159 26.258 2.421 5.234.974 6.6 1.206 23.345 3.755 28.62 2.008 28.259 2.396 34.362 4.131 10.084 2.865 23.584 8.745 28.588 11.893 19.984 12.57 27.434 14.604 29.267 15.438 27.378 12.458 29.048 14.97 31.208 16.148 19.74 10.771 20.717 14.563 27.422 25.954 1.437 2.439 1.221 2.08 3.979 6.593 0 0 1.312 1.738 2.088 4.632m-362.26-199.24c1.277-2.195 14.737-12.355 39.119-13.686 10.195-.557 3.292 1.966 30.529-9.055 20.292-8.211 11.439 2.643 36.013-38.723.347-.584 9.658-18.939 10.144-20.362 0 0 6.314-13.203 17.375-24.994" opacity=".75"/>
   </g>
   <path d="m896.39 81.683c3.58 4.039 16.769 11.178 23.709 13.225 8.029 2.368 24.126 9.399 25.014 9.918 7.099 4.154 19.893 7.219 22.192 7.31 5.841.231 9.12 1.111 23.674 2.73 19.07 2.513 17.792 4.361 29.354 7.947 21.444 6.651 24.735 9.792 25.438 11.981.125.389-.275 2.43-1.482 30.787-.303 5.452-10.299 25.863-11.854 27.936-9.785 13.042-11.222 20.633-11.431 24.903-.466 9.501-1.67 16.281-5.963 23.78-6.449 11.265-13.693 17.695-13.936 23.113-.857 19.207-1.759 19.505-5.857 28.542-2.396 5.286-2.391 6.187-3.951 9.039-3.258 5.954-1.79 2.74-4.657 10.192-1.374 3.571-9.44 20.039-16.37 26.358-3.672 3.349-18.434 14.905-20.676 18.624-5.647 9.369-11.333 13.448-13.124 16.045 0 0-11.124 18.028-13.689 21.081l-7.479 7.037c-4.788 3.411-5.178 3.837-5.539 4.276-16.97 20.657-21.086 20.123-23.639 23.144-1.265 1.496-10.157 6.427-18.805 15.985-10.25 11.33-7.926 9.374-19.757 15.197-6.325 3.112-18.015 7.995-20.957 8.007-16.35.068-27.777-12.585-28.578-12.861" opacity=".75" stroke-width="4.36"/>
   <g stroke-width="4.18">
    <path d="m1710.1 202.64c-4.423.4-7.053-.107-16.404 13.269-8.053 11.516-10.423 27.912-13.104 33.381-7.688 15.681-15.187 17.267-15.726 27.331-.621 11.594-7.131 24.399-11.697 27.957-12.764 9.947-6.848 15.498-31.79 40.141-8.362 8.261-9.21 8.543-19.025 22.282-2.647 5.908-2.305 7.603-8.251 21.74-2.572 6.116-6.275 19.247-6.31 19.903-.353 6.68.651 19.099 1.165 24.076.204 1.986 3.279 8.835 6.115 29.667 2.547 11.493 6.796 18.817 8.057 30.46 1.529 14.124-6.093 28.157-9.901 31.587-3.969 3.575-12.604 20.356-12.716 20.487-3.755 4.422-8.743 13.243-10.872 23.701-3.784 18.595-3.329 15.346-2.185 22.115.844 4.987 2.219 12.466-9.658 24.786-4.073 4.226-31.325 30.919-39.992 37.345-11.841 8.778-19.122 10.557-19.414 10.724-3.822 2.174-9.132 6.396-12.231 19.82-2.089 9.049-5.511 19.794-14.657 31.42-11.468 14.577-11.433 16.099-11.648 19.945-.312 5.568.646 11.192 0 16.732-.098.838-.306 1.665-.582 2.461-.302.87-.816 1.652-1.165 2.504-.601 1.467-1.257 3.592-1.456 4.632-.156.812-.242 1.637-.291 2.462-.326 5.526.24 11.077 0 16.607-.429 9.837-17.488 34.531-21.113 41.31 0 0-9.014 19.538-12.473 24.744" opacity=".75"/>
    <path d="m1432.5 82.8c3.688-.111 3.316-.972 4.707 4.382 1.171 4.505 1.1 4.213 1.214 4.923.683 4.259.045 8.629.291 12.936.14 2.449 8.058 15.419 10.192 26.037 3.081 15.322 9.319 24.676 10.969 26.538 3.885 4.386 16.082 21.449 22.132 38.222 4.392 12.173 12.927 26.582 14.561 62.256.728 15.862 2.163 21.503 2.33 25.912.262 6.921.504 3.787 1.165 24.077.083 2.567 1.828 10.388 1.164 27.539-.248 6.422-2.244 15.158-6.018 26.455-1.635 4.893-5.565 21.869-6.311 27.248-.595 4.3-2.846 9.472-2.038 28.249.425 9.866 10.419 31.148 17.182 37.846 2.26 2.239 4.509 6.192 6.067 7.469 3.438 2.82 4.767 3.949 11.453 8.053 9.89 6.069 5.094 3.069 18.832 10.891 16.762 9.543 23.232 12.708 35.674 31.211 0 0 7.526 14.259 10.969 17.901" opacity=".75"/>
    <path d="m1438.5 109.34c0 3.95 3.974 7.718-18.395 32.589-12.129 13.485-16.895 23.297-21.307 26.496-5.231 3.793-17.05 14.124-24.898 22.24-18.339 18.963-13.665 12.253-18.201 27.457-4.222 14.149-4.668 14.688-7.813 19.361-3.741 5.558-9.238 20.59-10.096 24.243-.4 1.706-.92 3.382-2.185 20.655-.285 4.64-.582 12.125-10.969 26.33-11.007 15.053-18.861 25.491-24.655 29.542-13.346 9.33-20.735 17.135-23.88 31.253 0 0-3.069 4.345-2.038 28.333.515 11.976 3.074 17.95 3.495 22.073 2.224 21.819-3.697 32.577-8.543 41.101-2.211 3.891-8.367 15.987-12.57 25.036-5.867 12.63-6.056 12.525-9.367 19.403-4.348 9.029-1.187.413-3.98 9.555-.299.982-2.249 5.548-3.396 8.429-5.49 13.778-2.334 6.126-12.766 29.625-3.383 7.623-5.531 16.726-5.289 21.03.33 5.9 2.204 10.967 14.025 16.44 7.493 3.469 2.49 2.829 24.462 4.006 9.784.524 18.846 5.527 26.209 16.774 11.267 17.208 4.386 4.311 11.405 21.03 11.075 26.378 8.273 20.989 20.92 32.964 5.945 5.63 15.176 16.822 15.385 16.982 6.117 4.674 14.526 21.962 16.017 26.58 1.47 4.554 14.601 22.229 19.025 40.767 7.243 30.339 13.001 33.697 16.211 35.76 4.681 3.006 2.947 1.418 7.96 7.177 4.145 4.762 5.091 6.983 7.62 9.764 5.217 5.736 15.329 22.185 15.482 24.66.763 12.276 9.562 24.375 8.736 25.495 0 0-.776.167-1.165.25" opacity=".75"/>
   </g>
   <path d="m460.5 1393c-3.544 3.001-3.748 3.755-9.563 22.647-.474 1.539-1.377 5.795-9.518 22.478-6.344 13-8.873 14.911-9.271 18.335" opacity=".75" stroke-width="4.15"/>
  </g>
  <path d="m1041.3 85.913c10.499 26.999 19.499 55.497 35.998 77.996 17.999 25.499 44.998 44.997 65.997 67.496 40.498 43.498 4.5 111 31.498 160.49 14.999 28.499 37.498 50.998 50.998 80.996 11.998 25.499 14.998 56.997 20.998 85.496 11.999 59.997 52.498 110.99 86.996 160.49 13.499 19.499 59.996 61.497 35.998 85.496-12 12-29.999 9-35.998 28.499-3 12 2.999 28.499 1.499 41.998"/>
  <path d="m1065.8 145.79c-10.01-19.18-16.963-39.699-24.735-59.807m15.135 11.58-18.4 6.97m28.6 19.01-18.1 7.73m57.8 64.87c-15.791-14.673-30.207-31.157-40.281-50.357m16.681 8.257-16.4 11.03m33 9.93-14.4 13.44m66.6 53.79c-12.235-17.785-29.871-30.98-45.165-46.089m18.565 3.649-13.3 14.52m34.2 5.38-14.1 13.82m32.4 71.16c.294-21.319-1.031-43.934-12.684-62.432m16.484 11.222-18.6 6.5m24.4 23.78-19.7 1.41m12.6 84.09c-4.514-21.265-2.617-43.079-2.42-64.579m9.62 16.429-19.7-.48m19.9 27.97-19.7 1.17m42.4 76.33c-12.095-17.612-25.738-35.382-30.121-56.833m14.021 11.603-18.2 7.59m31.2 15.47-16.5 10.78m52.3 66.97c-7.771-20.194-20.098-38.127-32.717-55.585m17.617 7.535-16.3 11.19m31.8 13.77-17.4 9.31m31.7 76.7c-3.898-21.19-7.121-42.676-14.674-62.919m14.574 12.729-19 5.22m25.3 23.23-19.3 3.6m31.6 80c-9.224-19.562-14.93-40.604-18.57-61.857m13.07 13.797-19.3 4.08m26.7 21.84-18.6 6.65m48.7 71.77c-11.845-18.027-23.067-36.561-31.914-56.279m15.914 9.949-17.5 9.08m31.2 14.93-16.9 10.3m56.2 65.14c-12.388-17.666-25.076-35.131-37.012-53.12m17.312 7.7-16.2 11.19m32.4 11.89-16.1 11.41m58.3 62.67c-10.214-19.126-26.361-34.036-38.714-51.74m17.514 6.46-15.2 12.59m33.4 9.75-15.8 11.85m-3.2 59.82c9.549-4.482 20.876-8.002 25.868-18.048 4.996-9.912 1.092-21.485-3.866-30.683m15.498 13.181-19.4 3.64m5.8 30.92-11.7-15.9m-25.2 75.43c.936-10.769-1.818-21.411-2.317-32.205-1.094-10.915 5.122-22.074 15.35-26.34m-3.333 15.645-17.1-9.81m16.2 31.34-19.6 2.48" stroke="#986828" stroke-width="4"/>
  <path d="m1000.8 847.88c61.497 37.498 116.99 19.499 182.99 17.999 31.498 0 62.996 6 92.994 1.5 29.999-3 61.497-16.5 91.496-12 38.998 7.5 23.999 44.998 26.998 76.496"/>
  <path d="m1062.8 869.99c-21.971-2.764-43.243-10.408-62.114-21.956m18.904-1.154-8.54 17.78m33.95-8.39-5 19.07m89-5.6c-21.99 1.802-44.224 3.167-66.207.252m17.007-8.602-1 19.71m29-19.96 1 19.7m86.3-14.54c-22.088-.854-44.127 1.751-66.139 3.442m15.739-11.412 1.6 19.66m27.7-21.64.9 19.71m86.4-7.05c-22.139.992-44.164-1.88-66.225-2.71m17.225-9.11-1.3 19.68m30-17.92-.8 19.71m86.4-20.73c-21.577 4.552-43.143 10.055-65.302 11.079m15.502-11.569 2.1 19.61m25.3-24.58 4.3 19.26m80.4-4.73c-6.771-8.954-18.623-12.013-29.428-12.217-11.033-.545-22.048 1.084-32.872 3.146m15.3-12.529 2.1 19.62m30.3-18.37-5 19.08m25.7 66.16c-1.012-11.053.048-22.118.36-33.143.2-10.824.191-22.691-6.466-31.746m15.806 13.769-19.5 2.88m19.7 27.95-19.7-.85" stroke="#986828" stroke-width="4"/>
  <path d="m843.29 1552.8c26.999-4.499 47.997-20.999 71.996-32.997 17.999-9 14.999-13.5 22.499-31.499 7.5-13.5 19.499-20.999 31.498-29.999 23.999-19.498 35.998-44.997 55.498-68.996 17.998-23.998 35.998-41.998 59.996-58.497 26.999-19.499 61.498-20.999 88.496-37.498 12-8.999 22.499-22.499 34.498-31.498 12-9 26.999-15 38.998-23.999 16.499-12 22.499-15 29.998-29.998 7.5-15 16.5-28.499 24-41.998 13.499-31.499 34.497-46.498 59.996-67.497 13.5-10.499 18-22.499 23.999-37.498 8.999-19.499 19.499-23.999 35.998-35.999 11.999-10.499 32.999-26.998 26.999-41.997-4.5-12-29.999-35.999-43.498-31.499"/>
  <path d="m898.17 1529.4c-17.227 9.912-34.868 20.396-54.847 23.644m11.367-13.244 6.27 18.7m16.11-28.8 9.35 17.4m51.54-58.7c-4.267 8.743-4.827 20.196-13.635 26.247-8.313 5.675-17.65 9.417-26.151 14.71m8.436-16.157 9.18 17.5m6.49-28.9 17.92 8.2m42.84-64.5c-13.347 16.229-34.899 24.017-45.084 42.89m2.324-19.39 14 13.9m8.47-32 11.81 15.8m45.84-71.5c-12.688 16.562-23.172 34.833-37.359 50.285m2.059-18.085 15.66 12m-.05-34 16.21 11.2m45.21-67.9c-15.83 13.672-29.133 29.907-41.727 46.547m1.727-18.547 15.5 12.2m3.1-33.7 14.2 13.7m60-53c-20.005 6.466-37.054 19.249-52.824 32.8m6.024-17.9 12 15.7m12.2-31.8 9.1 17.5m72-38.7c-18.064 10.912-38.872 15.273-58.432 22.395m11.732-14.595 6 18.8m19.3-27.3 7.3 18.3m60.8-57c-18.514 9.381-30.558 26.833-46.732 39.387m4.532-17.387 13.7 14.2m6.3-33.2 12.6 15.2m59.6-53.3c-14.224 14.807-32.204 25.283-49.996 35.157m8.296-16.257 9.8 17.1m11.6-31.5 11.6 16m39.5-73.6c-5.034 8.917-10.408 17.616-15.505 26.471-5.431 8.652-9.032 18.375-15.323 26.552m-.972-17.623 17.5 8.9m-4-32.8 16.9 10m39.3-70.7c-15.969 13.434-29.822 29.781-37.891 49.193m-1.509-18.993 16.9 10m1-33.6 14.3 13.6m49.1-65.77c-6.911 20.776-26.596 31.929-41.938 45.607m5.738-17.837 12.5 15.3m6.1-32.2 15.6 12.1m42.2-69.1c-8.402 6.235-17.597 11.479-24.845 19.044-7.391 7.538-11.452 17.378-15.269 27.084m-2.686-19.098 17.4 9.29m3.3-33.02 11.8 15.77m36.5-63.03c4.733 8.734-.652 18.5-6.392 25.1-5.898 7.034-12.987 12.864-19.868 18.867m3.56-16.457 13.3 14.54m-.2-29.97 17.6 8.83m-50.9-50.77c9.421-2.036 17.886 4.081 24.956 9.331 7.011 5.807 13.689 12.361 17.979 20.523m-15.435-4.394 14.6-13.23m-30.6.1 9.6-17.22" stroke="#986828" stroke-width="4"/>
  <path d="m1099.7 873.37c-37.497 12-44.997 46.498-70.496 67.497-22.499 19.499-44.997 74.996-77.996 74.996-14.999 1.5-25.499-17.999-40.498-22.499-16.499-4.5-34.498 1.5-50.997 1.5-44.998 4.5-61.497-17.999-91.496-46.498-23.999-25.499-59.997-46.498-94.495-53.997-18-1.5-34.499 0-50.998 6-17.999 6-26.999 20.999-43.498 31.499-14.999 10.5-32.998 16.499-49.497 26.999-19.499 12-32.999 28.499-52.498 41.998-20.999 12-40.498 26.998-62.997 38.998-26.999 13.499-46.498 16.499-77.996 19.499-35.999 3-67.497 20.999-103.5 23.999-17.999 1.5-35.999-3-52.497 1.5-22.499 4.5-37.499 22.498-50.998 37.497-20.999 22.499-38.998 40.499-65.996 55.498-9 4.499-16.5 8.999-25.499 13.499"/>
  <path d="m1048.5 919.21c13.113-18.861 27.968-39.215 51.232-46.012m-10.632 15.942-10.4-16.72m-9.3 35.38-15.5-12.23m-50.47 77.22c6.823-9.484 13.34-19.26 21.34-27.853 8.708-7.867 17.027-16.042 23.692-25.729m-3.662 20.442-14.5-13.42m-6 34.91-15.68-12m-57.37 66.54c11.925-.01 22.164-7.457 30.271-15.571 8.224-8.309 15.109-17.82 21.908-27.318m-2.509 20.289-15.54-12.15m-8.12 35.94-11.23-16.22m-57.19-7.92c16.584 3.438 24.92 23.25 42.408 22.952m-16.578 5.848 9.65-17.2m-27.88 3.36 11.93-15.71m-68.62 2.7c16.348-.057 32.689-5.499 49.087-1.952m-12.227 8.852-.09-19.73m-20.2 21.61-2.42-19.58m-80.38-11.62c8.995 8.011 18.985 15.198 30.459 19.108 11.458 3.878 23.768 4.49 35.773 3.317m-18.892 10.245 1.58-19.66m-35.78 9.15 9.84-17.1m-76.83-53.58c20.223 13.553 35.738 32.568 53.853 48.513m-20.203-5.243 13.77-14.13m-36.24-7.63 13.09-14.75m-90.14-36.31c23.671 5.324 45.986 15.785 65.868 29.555m-20.318-.955 9.75-17.14m-37.02 4.41 6.83-18.51m-81.4 10.81c17.615-7.751 37.238-9.837 56.29-8.172m-14.22 9.542-.28-19.72m-22.45 22.44-4.56-19.19m-60.69 49.24c17.271-8.707 28.521-25.534 45.908-34.138m-5.858 15.518-12.31-15.41m-6.69 31.88-12.24-15.47m-58.95 45.41c15.415-11.537 33.596-18.292 50.139-27.79m-8.149 15.74-8.81-17.65m-13.14 28.79-9.66-17.2m-54.66 54.53c15.734-10.881 28.828-25.082 44.281-36.422m-4.711 16.582-12.8-15.01m-6.14 31.56-12.73-15.07m-60.16 51.27c17.732-10.45 34.402-22.648 52.264-32.915m-7.844 16.515-10.53-16.69m-12.06 31.33-10.71-16.56m-68.51 39.97c20.285-3.456 39.848-10.908 57.391-21.649m-9.151 16.489-8.57-17.77m-18.04 28.2-5.61-18.91m-77.02 23.05c19.861-5.995 40.781-5.668 60.998-9.409m-14.068 12.199-2.36-19.58m-24.09 22.6-3.16-19.47m-76.8 30.19c20.264-3.769 39.569-11.249 59.478-16.531m-11.908 13.891-5.77-18.86m-20.34 26.8-5.29-19.05m-77.73 16.15c20.508-2.847 41.283 2.593 61.557-2.383m-14.547 11.983-1.44-19.64m-26.64 19.24.71-19.71m-70.57 43.11c13.313-15.301 29.87-30.125 50.938-32.629m-11.188 13.329-7.34-18.27m-12.16 31.17-13.28-14.6m-51.024 64.2c16.015-12.944 30.272-27.899 44.049-43.175m-3.155 18.275-14.31-13.6m-5.17 33.2-13.47-14.4m-60.731 51.5c18.164-9.62 36.802-18.698 52.787-31.79m-6.826 17.39-11.06-16.3m-13.11 30.5-9.33-17.4" stroke="#986828" stroke-width="4"/>
  <path d="m1046.6 1344.7 8.887-5.274 8.134-18.653-2.182-10.101m3.814 42.161-2.182-10.101 8.134-18.653 8.887-5.274" stroke="#000" stroke-width="1.79"/>
 </g>
 <path d="m1374.5 940.37 20.484-15.204 16.986 22.886-20.485 15.204z" fill="#800000"/>
 <g fill="none" stroke-linecap="round" stroke-linejoin="round">
  <path d="m39.573 262.73c48.981-27.436 56.371-37.897 57.896-38.805.413-.247 2.825-3.973 21.093-7.99 7.019-1.543 9.106-4.129 29.87-2.917 14.101.824 32.762 10.276 42.703 10.652 37.978 1.438 29.997 1.118 37.761 4.565 1.697.753 7.202 2.209 21.02 8.941 3.237 1.201 14.42 5.518 19.102 8.306 2.11 1.257 4.501 1.972 25.519 14.9 8.712 4.475 4.68 3.216 23.084 12.238 40.084 19.647 35.299 20.953 39.827 25.045 12.091 10.929 21.051 28.177 32.451 35.888 2.353 1.591 4.889 2.915 7.154 4.629 3.388 2.563.751.948 5.605 3.424 4.889 2.493 8 6.33 12.907 9.384 31.847 19.823 34.233 19.819 38.794 20.037 9.936.474 10.688-.414 21.536-1.902 16.317-2.238 15.665-3.211 27.657-6.15.716-.176 1.5-1.651 23.01-2.854 4.062-.227 13.187-5.98 17.037-7.926 11.869-5.997 10.073-5.471 17.627-9.574 19.842-10.78 39.981-15.208 44.915-15.472 7.792-.417 17.116-4.193 24.781-4.565 12.768-.62 20.297 4.047 28.1 6.213 11.05 3.068 53.365 20.841 64.976 21.432 44.111 2.244 44.392 2.618 47.054 16.613 4.223 22.195 22.59 43.035 24.338 46.287 14.102 26.239 16.815 28.661 30.755 29.928 20.171 1.833 22.365-.36 32.008-4.501 19.314-8.294 19.487-12.733 28.1-13.506 20.247-1.817 26.474 2.993 30.091 4.819 26.275 13.265 24.232 15.616 36.065 23.587 10.303 6.941 13.352 7.056 20.725 7.862 1.303.143 2.616.219 3.908.444 1.27.221 2.492.667 3.762.887 1.291.225 2.6.37 3.908.444 10.898.617 21.844-.529 32.746 0 25.775 1.251 30.664 1.684 59.813 38.424 10.952 13.804 13.681 20.258 25.371 28.724 16.133 11.682 28.753 36.355 46.926 57.502 18.173 21.148 41.899 38.77 46.813 44.709 27.163 32.826 33.987 34.441 36.508 37.917 0 0 19.08 18.371 37.688 21.875l57.011.634c20.708 0 18.489-.325 24.117-3.044 9.304-4.494 13.581-5.835 19.249-6.087 18.126-.805 36.309-.88 54.43 0 4.355.211 24.16 5.429 36.434 6.087 23.662 1.268 23.439 4.446 23.896 11.54.72 11.184-.025 18.489-.443 20.417-.211.973-.668 1.881-3.098 21.495-.081 1.308.082 2.623-9.588 40.834-.285 1.032-6.784 20.076-10.251 23.396-6.769 6.482-3.734.793-19.692 27.836-2.987 5.064-11.938 16.41-14.897 18.071-9.475 5.317-12.49 11.084-17.11 14.267-17.976 12.379-19.002 13.351-25.519 19.719-16.575 16.198-17.878 16.193-22.863 31.513-8.435 25.919-4.808 14.158-7.966 26.44-6.752 26.262-4.328 22.124-.146 28.977 6.105 10.007 14.064 15.562 18.585 16.042 40.3 4.282 67.651 23.617 72.572 30.562 8.865 12.51 7.423 9.178 11.433 18.07.389.865 5.77 5.672 6.858 23.524.43 7.046-.471 14.134 0 21.178.105 1.582 5.149 22.453 5.31 25.046 1.166 18.767 3.314 20.752 3.541 24.791.603 10.75 1.997 22.641 3.098 27.328 2.706 11.53 2.314 19.564 3.54 24.855.702 3.035 1.655 5.993 2.212 10.082.45 3.307 1.67 7.083 2.508 10.906 0 0 1.328 6.848 3.098 12.428v25.108c1.848 6.353 2.22 4.387 3.54 29.422.147 2.799.892 5.536 1.771 34.429.528 14.408 10.307 35.497 16.741 46.478 6.728 11.479 8.14 20.233 9.22 22.509.816 1.723 9.298 27.203 14.381 35.952 4.625 7.958 8.705 19.132 13.645 27.455 8.544 14.394.493.308 30.165 55.163 11.437 21.145 17.301 38.327 19.103 42.039 27.841 57.382 39.05 66.666 44.619 71.967 1.02.97 5.688 6.782 19.397 17.246.614.511 9.239 6.066 28.469 25.807 0 0 19.913 18.896 23.748 19.91" opacity=".75" stroke="#526400" stroke-dasharray="48,24" stroke-width="12"/>
  <path d="m32.087 307.25c17.698-5.796 9.468-2.122 20.906-10.151 4.797-3.368 5.754-7.064 17.905-13.48 8.199-4.33 18.091-12.974 39.392-18.056 46.102-11.001 41.293-12.237 48.683-12.564 19.621-.871 29.074 8.887 32.423 10.359 3.477 1.528 5.865 3.934 34.262 15.685.684.205 1.395.307 58.217 3.245 18.876.824 36.265 6.931 51.925 43.019 3.541 8.16.799 6.289 15.292 31.287 5.255 9.064 7.083 17.906 6.968 20.136-.028.54-3.542 22.561-4.355 25.004-3.174 9.527-6.086 13.412-12.341 19.679-2.163 2.168-15.931 36.289-22.938 43.144-11.13 10.888-17.179 28.58-17.47 29.456-5.139 15.491-7.854 15.384-10.501 20.053-3.377 5.958-4.547 6.443-6.679 10.151-5.194 9.04-4.592 10.676-4.694 12.606 0 0 19.556 22.844 17.615 23.215l19.551 11.15c9.588 3.298 12.654 7.838 16.647 14.562.751 1.263 1.771 2.353 14.518 24.546 18.634 33.073 22.938 38.34 33.101 45.224 17.109 11.588 9.639 7.052 19.019 12.023 12.447 6.598 22.594 20.718 23.18 30.995 1.115 19.553-16.173 24.054-20.712 30.413-4.107 5.754-7.376 8.337-20.519 27.917-10.16 14.264-14.8 27.812-15.098 32.368-.22 3.362-.249 6.758-1.452 20.927-1.532 10.072-1.537 10.718 1.162 20.76.07.261-.028 3.528 6.291 20.178.853 2.026 1.546 4.12 2.468 6.116.739 1.6 1.62 3.131 2.419 4.702 1.415 2.779 4.717 12.312 6.194 15.186 4.931 9.591 10.896 14.185 14.905 17.016 15.098 10.661 19.417 21.672 21.729 24.089 4.928 5.151 10.466 16.962 12.195 26.21 1.032 5.519 6.873 20.626 7.162 21.094 10.292 16.618 10.172 15.093 17.809 20.261 27.787 18.808 28.475 15.22 29.713 15.269 15.267.596 19.08-2.821 23.229-8.778 0 0 9.379-10.672 22.067-15.186l26.132-12.648c6.453-7.396 14.058-7.932 17.663-10.318 1.561-1.032 13.284-6.611 19.599-15.726 8.861-12.788 25.47-17.066 28.165-17.641 4.952-1.056 15.297-7.222 27.246-7.905 8.321-.475 18.664-2.868 21.729-2.996 8.191-.34 16.877 4.083 19.55 7.073.673.752 8.97 5.492 15.68 21.01 2.266 5.242 9.345 15.805 12.098 18.889.401.449 9.985 14.117 35.569 29.581 10.165 6.144 23.649 17.453 30.826 20.095 6.795 2.501 18.202 9.386 24.777 9.694 24.091 1.127 20.102.16 23.906-4.244 5.795-6.708 10.675-10.081 28.455-12.481.008-.001 4.017 1.053 27.826-4.992 10.006-2.541 18.839-.677 24.293 1.955 17.021 8.215 18.921 12.396 19.115 13.73.898 6.184.509 15.354-14.76 27.833-14.682 11.998-13.11 9.946-20.471 16.975 0 0-7.438 8.206-15.195 13.938l-45.962 33.028c-5.229-.855-5.648 3.33-22.358 15.353-8.834 6.357-19.655 17.416-23.906 23.507-10.981 15.734-10.746 13.96-12.679 17.973-10.851 22.522-11.411 35.227-22.745 60.576-10.412 23.29-11.432 40.709-11.614 44.225-.311 5.983.347 11.992-.29 20.47-.144.801-.437 1.57-.871 26.627-.195 3.316-2.09 6.474-4.694 24.089-2.274 11.8-2.018 6.494-2.855 25.005-.273 6.028-1.359 8.713 2.517 26.71.36 6.842-.62 13.761.29 20.552 1.303 9.723.252 19.625.871 29.415 1.384 21.903 5.487 28.23 6.969 30.246 8.612 11.717 14.248 22.854 16.647 24.838 1.494 1.234 2.628 3.451 7.84 8.279 7.512 6.959 7.509 6.196 12.195 6.781 12.602 1.572 13.586.241 17.905-3.911 13.212-12.7 12.394-10.592 16.211-13.396 15.422-11.329 23.086-23.304 25.939-25.254 18.832-12.876 17.276-12.238 20.325-14.895 6.817-5.938 10.841-6.32 17.519-12.647.009-.01-.12-1.735 18.583-10.817 11.858-5.759 24.879-8.328 29.471-8.529 20.792-.906 18.637-1.305 21.002-2.038 8.467-2.625 12.883-2.436 20.567-2.121 2.762.112 34.122 5.115 45.876 14.977 12.15 10.194 9.832 7.937 15.535 13.271 2.827 2.647 7.707 6.511 12.388 9.361 11.726 7.141 14.639 9.603 22.938 17.183 22.327 20.392 26.156 26.629 29.133 37.943 2.931 11.143 5.607 16.21 11.952 25.961 9.606 14.764 8.616 13.214 13.599 25.712 1.749 4.385 4.664 11.028 4.791 11.357.467 1.217.806 2.48 1.258 3.703.941 2.544.92 2.496 3.243 7.488 5.319 11.434 4.662 13.681 8.71 20.137 4.562 7.275 3.791 8.102 10.985 17.433 13.656 17.711 16.958 17.881 23.471 20.428 4.94 1.932 13.312 7.581 20.422 7.53 1.305-.01 13.616-4.889 20.325-10.109 4.828-3.758 11.577-8.353 19.453-12.398 3.854-1.979 8.263-5.248 8.324-5.284.346-.199 6.346-2.819 8.662-4.243 1.975-1.215 9.509-3.286 19.115-9.527 2.032-1.32 19.545-16.755 30.633-21.551 51.612-22.327 53.642-18.458 59.039-21.635 5.422-3.192 17.986-5.331 20.566-5.117 9.178.76 15.034 7.65 17.809 19.305.4 1.676 1.425 7.914 10.163 26.626 2.05 4.389 5.555 5.938 9.969 32.784 1.442 8.776 1.483 8.704 2.274 10.983.784 2.258 1.936 4.38 2.662 6.657.582 1.824.984 3.703 1.549 5.533 3.488 11.334 4.078 13.773 4.936 19.596 6.695 45.489 12.904 50.235 13.404 61.2.186 4.06-.692 8.15-.242 12.19 1.189 10.645.968 8.79.871 10.941-.148 3.322-3.199 14.052-2.322 29.83.104 1.857 1.897 9.698 2.517 22.508.104 2.153.601 4.269.871 6.407.874 6.922-.101 13.962.29 20.928 0 0 5.742 25.988 7.355 29.538" opacity=".75" stroke="#236400" stroke-dasharray="48,24,12,24" stroke-width="12"/>
  <path d="m1248.6 735.23c6.498-1.417 5.151-2.48 13.972-7.552 10.643-6.121 11.458-5.35 15.911-8.099 3.627-2.239 18.463-8.843 25.826-9.707 1.367-.16 22.02-1.372 23.145-1.698 11.065-3.218 7.104-2.936 27.59-6.977 3.908-.771 11.588-5.504 21.169-6.309 26.825-2.252 43.013 9.323 43.079 9.342 15.695 4.768 29.992 14.038 35.81 21.718 3.702 4.887 4.19 5.268 5.187 23.022.317 5.665-3.49 34.602-8.009 42.677-1.145 2.044-1.321 6.997-16.44 21.475-6.896 6.603-10.498 18.011-15.771 24.296-7.193 8.575-10.658 8.495-29.354 24.842-15.878 13.882-17.039 14.035-17.288 14.226-1.988 1.52-27.028 13.354-32.106 22.021-13.854 23.651-16.438 22.276-20.109 23.78-8.566 3.509-8.493 2.401-19.405 7.553-9.297 4.389-8.974 4.281-19.687 3.761-8.924-.433-25.196-8.251-29.107-11.435-1.609-1.311-14.38-13.196-24.979-19.837-1.416-.887-13.082-14.737-16.371-17.046-4.049-2.844-9.947-5.559-24.449-15.257-14.605-9.767-43.055-10.331-56.415-9.706-4.79.224-30.239 6.374-33.553 6.552-4.115.221-3.841.315-5.433-2.214-2.68-4.256-2.99-6.948-2.752-8.281.374-2.106 2.992-3.301 7.126-11.829 5.657-11.669 11.542-14.263 12.736-16.744 1.391-2.886 2.945-8.823 17.288-20.443 0 0 3.371-3.255 3.986-3.822" opacity=".75" stroke="#236400" stroke-dasharray="40,20,10,20" stroke-width="10"/>
  <g stroke="#007a48">
   <path d="m1272 1600.6c-2.186-3.289-11.899-10.928-17.729-18.2-1.147-1.431-4.336-4.572-9.588-10.399-10.397-11.534-11.086-15.304-28.026-30.815-7.583-6.942-10.797-9.77-17.11-21.431-2.55-4.711-10.26-10.314-16.3-28.978-2.104-6.504-.334-3.019-7.743-14.394-4.914-7.541-4.407-8.448-7.523-14.139-4.225-7.717-9.012-25.635-10.178-29.992-5.342-19.953-9.188-24.073-11.874-27.328-6.249-7.571-5.308-8.359-9.81-17.627-2.833-5.834-1.778-5.349-9.734-22.445-6.175-13.268-5.301-18.832-8.408-33.543-5.355-25.351-5.192-20.74-8.851-36.775-6.604-28.951-1.871-15.161-12.095-35.191-1.91-3.739-8.621-28.119-12.244-33.478-5.611-8.302-8.131-20.626-7.08-29.041.031-.244 17.301-21.714 17.221-23.264-.304-5.924-2.733-20.8-10.877-22.325-1.937-.363-8.148-1.319-19.103.761-1.937.367-6.323.272-21.02 2.282-12.186 1.667-24.662 5.756-44.915 15.598-4.092 1.989-1.924-.543-29.279 14.014-9.982 5.311-21.135 8.402-24.044 10.082-23.159 13.176-17.231 16.859-26.276 21.377-5.003 2.499-19.683 26.071-20.896 27.163-14.906 13.419-17.905 31.194-29.31 29.956-1.986-.215-19.147-5.369-27.51-5.706-18.062-.727-26.66 1.303-28.985 1.521-22.728 10.404-22.918 11.023-43.44 22.827-21.208 12.197-19.541 10.41-23.085 17.246-1.099 2.121-14.009 12.092-15.414 12.682 0 0-13.486 1.956-14.75-4.565l9.471-46.619c2.647-14.429 4.985-22.222 5.504-27.146.854-8.118 10.672-37.641 15.03-44.862 7.896-13.084 14.165-52.133 32.247-78.803.82-1.209 6.132-11.273 10.796-23.294 12.26-26.417 15.6-25.241 16.653-44.619-5.889-16.563-11.661-17.711-11.713-17.714 0 0-24.709-4.875-28.084-5.217l-18.734-9.797c-27.666-15.383-58.704-50.355-59.519-53.142-1.666-5.689-16.936-19.31-26.25-18.958-21.546.816-21.436-.001-22.263 0-22.829 9.11-24.188 11.548-30.271 14.984-4.433 2.504-3.21 3.276-22.58 11.586-13.876 5.954-14.479 8.805-26.566 15.409-3.43 1.874-10.619 10.514-22.051 15.015-21.626 8.514-24.019 9.557-26.638 12.375-4.125 4.438-32.831 7.874-33.764 7.917 0 0-15.271.891-25.226-4.61l-25.473-34.396c-2.763-4.751-4.02-6.637-10.125-23.386-2.125-5.83-2.503-9.24-21.08-36.073-8.996-12.994-12.96-19.281-15.993-25.988-.907-2.004-4.66-1.181-12.356-17.712-1.624-3.487-18.656-62.267-19.122-69.248-.083-1.242-1.523-5.093-1.694-8.918-.205-4.581-.515-3.604 1.623-15.196.867-4.698 2.154-5.933 5.68-20.08 4.414-17.71 10.228-21.737 11.325-23.659 3.963-6.938 16.357-15.084 18.84-21.87 2.916-7.967 11.271-17.542 11.078-21.354-12.806-23.94-18.865-24.563-25.332-24.265-15.932.731-18.673 5.588-28.718 21.444-1.706 2.693.025 1.39-16.159 16.744-3.715 3.525-9.75 21.441-14.783 29.968-5.112 8.662-5.343 20.085-6.668 24.478-5.073 16.812-6.014 21.548-6.139 23.993-1.308 25.554.846 31.912.847 32.94 0 1.088-.562.821-1.693 24.539 0 0-2.54 10.38-2.54 22.324l.872 27.009c1.77 57.235 1.708 55.983 1.77 60.997.186 15.144-1.675 28.537-5.605 37.156-2.345 5.144-3.548 10.743-10.841 25.046-1.283 2.161-3.109 7.385-11.137 17.057-15.185 18.293-20.993 19.075-30.165 19.529-10.851.537-8.545-.466-31.935-1.521-4.003-.182-19.127-5.375-31.05-6.088-9.546-.57-19.141-.522-28.689 0-2.129.117-6.428-.314-41.007 11.794-12.414 4.347-32.297 12.875-38.794 17.373-14.739 10.206-23.861 17.538-31.861 26.758 0 0-2.295 2.848-3.54 4.185" opacity=".75" stroke-width="12"/>
   <path d="m1248.6 751.61c5.116-6.598 14.678-9.487 23.356-11.465 2.975-.678 5.759-.128 58.673-22.264.823-.058 1.649-.083 25.755-.728 9.233-.309 27.12-6.511 36.128-6.794 20.716-.651 47.412 22.498 49.111 29.058.969 3.736 6.417 5.672-.459 28.36-5.858 19.335-8.311 21.481-8.961 22.749-2.76 5.379-10.261 17.88-10.408 18.017-5.205 4.837-.669-.282-26.531 30.15-9.063 10.75-19.631 15.399-22.51 16.592-5.417 2.245-1.162-.958-22.933 15.773-5.661 4.351-10.059 5.189-18.875 12.224-12.312 9.823-14.147 15.892-16.159 18.047-3.225 3.456-5.607 5.833-21.168 9.16-6.548 1.4-18.716 3.181-24.31 3.458-4.503.223-13.438-8.031-23.356-12.618-1.74-.805-15.995-10.82-20.428-17.046 0 0-11.506-15.875-27.201-26.328l-9.844-4.792c-7.133-2.585-9.641-2.15-12.066-2.487-3.582-.498-12.152-3.616-25.049-4.307-25.772-6.037-29.211-5.07-29.157-5.115 3.677-3.062 25.755-30.747 31.786-36.672" opacity=".75" stroke-width="10"/>
  </g>
 </g>
 <path d="m393.01 1506.6c0-6.622 5.378-12 12-12s12 5.378 12 12c0 6.621-5.378 12-12 12s-12-5.379-12-12zm439 50c0-6.622 5.378-12 12-12s12 5.378 12 12c0 6.621-5.378 12-12 12s-12-5.379-12-12zm178-220c0-6.622 5.379-12 12-12s12 5.378 12 12c0 6.621-5.379 12-12 12s-12-5.379-12-12zm-762-270.03c0-6.622 5.378-12 12-12s12 5.378 12 12-5.378 12-12 12-12-5.378-12-12zm533-614c0-6.622 5.378-12 12-12s12 5.378 12 12-5.378 12-12 12-12-5.378-12-12zm213-132c0-6.622 5.379-12 12-12s12 5.378 12 12-5.379 12-12 12-12-5.378-12-12zm155.02 367c0-6.622 5.379-12 12-12s12 5.378 12 12-5.379 12-12 12-12-5.378-12-12z" fill="#a40"/>
 <path d="m1173 647.58c0-6.622 5.379-12 12-12s12 5.378 12 12-5.379 12-12 12-12-5.378-12-12zm82 168c0-6.622 5.379-12 12-12s12 5.378 12 12-5.379 12-12 12-12-5.378-12-12z" fill="#853035"/>
 <path d="m941.01 1213.6c0-6.622 5.378-12 12-12 6.621 0 12 5.378 12 12 0 6.621-5.379 12-12 12-6.622 0-12-5.379-12-12zm232.02-566.03c0-6.622 5.379-12 12-12s12 5.378 12 12-5.379 12-12 12-12-5.378-12-12zm81 168c0-6.622 5.379-12 12-12s12 5.378 12 12-5.379 12-12 12-12-5.378-12-12z" fill="#a40"/>
 <g font-family="PT Sans Caption">
  <text transform="matrix(.97219 -.23419 .23419 .97219 0 0)" x="-126.01" y="1132.95" font-size="24">Морозовск</text>
  <text x="457.95" y="305.4" font-size="28" font-weight="700">Серафимович</text>
  <g font-size="24">
   <text x="996.42" y="306.9">Кременьской</text>
   <text x="1044.42" y="630.89">Паньшино</text>
   <text x="1041.76" y="709.38">Вертячий</text>
  </g>
  <text x="894.09" y="817.88" font-size="28" font-weight="700">Калач-на-Дону</text>
  <g font-size="24">
   <text x="1208.58" y="843.88">Карповка</text>
   <text x="885.27" y="906.37" font-weight="700"><tspan font-size="28">22 ноября</tspan></text>
   <text x="804.79" y="943.87"><tspan x="804.79" y="943.87">Чир</tspan> <tspan x="805.45" y="972.67">Станция</tspan></text>
   <text x="966.05" y="1210.36">Кумский</text>
   <text transform="matrix(.88054 -.47397 .47397 .88054 0 0)" x="151.91" y="1688.87">Заливский</text>
   <text transform="matrix(.4776 .87858 -.87858 .4776 0 0)" x="1700.2" y="-300.8"><tspan x="1700.2" y="-300.8">Шестакова</tspan> <tspan x="1721.55" y="-272">Мост</tspan></text>
   <text x="855.15" y="1578.83">Котельниково</text>
   <text x="239.63" y="1497.34">Цымлянская</text>
   <text x="1494.58" y="792.38" font-weight="700"><tspan font-size="32">Сталинград</tspan></text>
  </g>
 </g>
 <g fill="#32b6ce" font-family="PT Sans Caption" font-style="oblique">
  <text transform="matrix(.8539 .52044 -.52044 .8539 0 0)" x="290.38" y="242.25" font-size="24">Чир</text>
  <text x="362.97" y="231.41" font-size="28" font-weight="700">Дон</text>
  <g font-size="24">
   <text transform="matrix(.91315 .40763 -.40763 .91315 0 0)" x="1269.92" y="856.77">пр. Аксай</text>
   <text transform="matrix(.84498 .53479 -.53479 .84498 0 0)" x="1335.07" y="428.8">пр. Мышовка</text>
   <text transform="matrix(.97907 -.20351 .20351 .97907 0 0)" x="298.22" y="1553.97">Дон</text>
   <text transform="matrix(.83028 .55734 -.55734 .83028 0 0)" x="1045.19" y="813.75">Цымла</text>
  </g>
  <text transform="matrix(.31989 -.94746 .94746 .31989 0 0)" x="140.97" y="1714.5" font-size="28" font-weight="700">Волга</text>
  <text transform="matrix(.98205 .18862 -.18862 .98205 0 0)" x="1166.24" y="1552.2" font-size="24">Сай</text>
 </g>
 <path d="m652.85 268.3c0-6.622 5.379-12 12-12s12 5.378 12 12-5.379 12-12 12-12-5.378-12-12zm329.36 571.98c0-6.622 5.379-12 12-12s12 5.378 12 12-5.379 12-12 12-12-5.378-12-12z" fill="none" stroke="#a40" stroke-width="10"/>
 <g stroke="#6f0000">
  <path d="m879.01 398.55s42 182.03 196 249.03l6-15 38 37-55.364 11.284 5.233-12.054s-140.87-35.229-228.87-258.23l39-12.034z" fill="url(#d)" opacity=".7"/>
  <path d="m790.01 356.58 24 20s-189 214 173 346l6-19 39 41-55 12 5-18s-429-135-192-382z" fill="url(#e)" opacity=".7"/>
  <path d="m917.95 834.51 3.049-15.24 38.099 38.1-53.339 9.144 6.096-16.764c-33.527-9.144-70.102-25.907-70.102-25.907 15.24 65.531 42.671 111.25 42.671 111.25l12.192-7.62-6.096 56.387-38.191-35.948 13.933-6.966c-60.959-141.73-112.9-162.82-112.9-162.82-199.64-128.01-272.79-286.51-272.79-286.51 22.859 281.94 176.78 371.85 176.78 371.85l10.668-13.716 19.812 50.291-53.339-12.191 9.144-10.668c-38.099-27.432-76.198-71.626-76.198-71.626l-13.716 41.147 16.764 1.524-41.147 41.147-10.667-53.339 18.288 7.62s9.587-49.546 4.572-65.531-28.956-39.624-28.956-39.624c-22.859-33.527-41.147-16.763-41.147-16.763l10.667 13.716-54.863-1.524 27.432-47.243 10.667 15.239c25.908-13.716 7.62-36.575 7.62-36.575l-27.432-54.863c-15.239-33.528-36.575-10.668-36.575-10.668l7.62 13.716h-47.243l22.859-45.719 13.716 13.716c19.812-15.24 7.62-41.147 7.62-41.147l-18.288-44.195c-30.48 24.384-51.815 27.432-51.815 27.432l7.62 18.288-50.291-15.24 36.575-33.527 3.048 18.288c29.026-10.8 41.515-40.074 38.547-77.656-3.496-44.262-15.466-156.87-15.464-156.86 88.54 87.722 142.77 56.624 143.03 58.121 23.006 325.01 411.47 499.48 411.47 499.48z" fill="url(#c)" opacity=".7"/>
  <path d="m1480.7 1009.9 93.31 305.02s-178.85-103-348.9-126.31c0 0-241.36 45.256-353.82 311.3l15.085 5.485-42.513 37.028-5.485-54.855 12.342 8.228s120.68-266.05 316.79-348.33c0 0-104.22-106.97-119.31-237.25l-17.828 4.114 21.942-52.112 28.799 46.627-17.828-1.372s30.17 218.05 330.5 282.51c0 0-204.34-71.312-263.31-268.79l-15.085 5.486 10.972-56.227 41.141 43.884-23.312 2.743s24.685 106.97 183.76 181.02c0 0-86.397-45.257-122.05-115.2l-12.343 9.6-5.485-56.227 47.999 30.17-16.457 9.6s10.857 23.199 91.769 69.827c0 0-36.913-24.571-43.771-58.856l-16.456 8.228-5.485-57.598 50.74 30.171-20.57 12.342c0-1e-3 109.52 99.25 204.85 29.739z" fill="url(#b)" opacity=".7"/>
 </g>
 <g fill="none" stroke="#f00" stroke-linecap="round" stroke-linejoin="round">
  <path d="m425.88 324.05 38.35-90.82m36.33-86.78 26.23-64.58m153.38 246.21 36.33-96.87" opacity=".7" stroke-width="6"/>
  <path d="m749.46 136.32 21.35-52.26" opacity=".7" stroke-width="5.76"/>
  <path d="m880.7 274.44-73.68 144.76" stroke-width="8.4"/>
  <path d="m936.5 162.58 38.34-76.7" stroke-width="9"/>
  <path d="m1142.3 560.17 98.9-169.52m58.5-96.88 113-187.69m-76.7 565.09 6.1-80.73 82.7-137.23m56.6-100.91 94.8-159.43" opacity=".7" stroke-width="6"/>
  <path d="m1711.4 457.24-32.3 36.33" stroke-width="9"/>
  <path d="m1713.4 830.6-74.6 16.15m72.6 68.62-84.7 20.18m-82.8-80.73-133.2 26.24m121.1 68.61-151.4 30.28m334.4 291.26-37.2 12.2m-89.8 31.8-70.4 26.2" opacity=".7" stroke-width="6"/>
 </g>
 <g fill="#800000" font-family="PT Sans Caption" font-size="32">
  <text transform="matrix(.386 -.9225 .9225 .386 0 0)" x="-18.31" y="493.47"><tspan x="-18.31" y="493.47">63-я</tspan> <tspan x="-31.65" y="531.87">ХХХХ</tspan> <tspan x="-68.07" y="570.27">5-я танк.</tspan></text>
  <text transform="matrix(.32811 -.94464 .94464 .32811 0 0)" x="-9.57" y="727.09"><tspan x="-9.57" y="727.09">5-я танк.</tspan> <tspan x="26.85" y="765.49">ХХХХ</tspan> <tspan x="31.29" y="803.88">21-я</tspan></text>
  <text transform="matrix(.42982 -.90292 .90292 .42982 0 0)" x="79.72" y="889.58"><tspan x="79.72" y="889.58">Юго-Западный</tspan> <tspan x="139.25" y="927.98">ХХХХХ</tspan> <tspan x="146.38" y="966.38">Донской</tspan></text>
  <text transform="matrix(.52122 -.85342 .85342 .52122 0 0)" x="330.28" y="1240.32"><tspan x="330.28" y="1240.32">65-я</tspan> <tspan x="326.72" y="1278.72">ХХХХ</tspan> <tspan x="330.28" y="1317.12">24-я</tspan></text>
  <text transform="matrix(.5115 -.85928 .85928 .5115 0 0)" x="356.21" y="1428.29"><tspan x="356.21" y="1428.29">24-я</tspan> <tspan x="352.65" y="1466.69">ХХХХ</tspan> <tspan x="356.21" y="1505.09">66-я</tspan></text>
  <text transform="matrix(.6787 -.73442 .73442 .6787 0 0)" x="679.23" y="1544.72"><tspan x="679.23" y="1544.72">Донской</tspan> <tspan x="661.42" y="1583.12">ХХХХХ</tspan></text>
  <text transform="matrix(.64087 -.76765 .76765 .64087 0 0)" x="450.24" y="1650.58">Сталинградский</text>
  <text transform="matrix(.9953 -.09684 .09684 .9953 0 0)" x="1475.76" y="977.98"><tspan x="1475.76" y="977.98">62-я</tspan> <tspan x="1462.42" y="1016.38">ХХХХ</tspan></text>
  <text transform="matrix(.9849 -.17313 .17313 .9849 0 0)" x="1352.15" y="1175.08"><tspan x="1352.15" y="1175.08">64-я</tspan> <tspan x="1348.59" y="1213.48">ХХХХ</tspan> <tspan x="1352.15" y="1251.88">57-я</tspan></text>
  <text transform="matrix(.95207 -.30589 .30589 .95207 0 0)" x="1121.85" y="1708.92"><tspan x="1121.85" y="1708.92">57-я</tspan> <tspan x="1118.29" y="1747.32">ХХХХ</tspan> <tspan x="1122.72" y="1785.72">51-я</tspan></text>
 </g>
 <g fill="none">
  <path d="m300.76 1343.2 159.43-159.4m74.68-74.7 80.72-82.75 16.15-56.5m113.01-141.28 76.69-244.19m28.26-98.89 48.43-155.4m-823.4 781.01c0 2.019 115.04-115.04 115.04-115.04m64.575-68.6 82.75-80.72m-195.77-171.55 68.62-161.45m36.33-92.83 50.45-108.98m928.31 605.44-197.7 40.37" stroke="#162862" stroke-linecap="round" stroke-linejoin="round" stroke-width="5"/>
  <g stroke-width="5.96">
   <path d="m492.01 1514.6h266v138h-266zm-319-875.03h132v67h-132z" stroke="#162862" stroke-linecap="round" stroke-linejoin="round"/>
   <path d="m941.92 1619.6h172.5v67h-172.5zm-366.91-1250h121v64h-121z" stroke="#11118f"/>
   <path d="m1127 739.58h121v64h-121z" stroke="#162862" stroke-linecap="round" stroke-linejoin="round"/>
   <path d="m316.01 1036.6h121v64h-121z" stroke="#11118f"/>
   <path d="m1209 1274.5h163v84.12h-163z" stroke="#162862" stroke-linecap="round" stroke-linejoin="round"/>
  </g>
  <path d="m942.53 975.91-72.65 18.16" stroke="#162862" stroke-linecap="round" stroke-linejoin="round" stroke-width="5"/>
 </g>
 <g font-size="32">
  <g font-family="PT Sans Caption">
   <text x="1222.15" y="1326.35" fill="#162862">4-я танк.</text>
   <text x="1248.08" y="1267.86" fill="#162862">ХХХХ</text>
   <g fill="#11118f">
    <text x="986.08" y="1611.86">ХХХХ</text>
    <text x="1003.06" y="1664.84">4-я</text>
    <text x="942.28" y="1720.83">(румынская)</text>
   </g>
   <text x="511.08" y="1554.84" fill="#162862"><tspan x="511.08" y="1554.84">Группа Армий</tspan> <tspan x="575.98" y="1593.24">Гота</tspan> <tspan x="555.53" y="1631.64">(4-я танк.)</tspan></text>
   <text x="583.1" y="1507.34" fill="#162862">ХХХХ</text>
   <text x="335.61" y="1030.87" fill="#11118f">ХХХХ</text>
   <text x="1145.57" y="734.37" fill="#162862">ХХХХ</text>
   <text x="593.09" y="364.87" fill="#11118f">ХХХХ</text>
   <text x="208.29" y="634.86" fill="#162862">ХХХ</text>
   <text x="204.88" y="684.88" fill="#162862">17-й</text>
   <text x="355.36" y="1081.36" fill="#11118f">3-я</text>
   <text x="288.82" y="1132.86" fill="#11118f">(румынская)</text>
   <text x="1163.05" y="781.38" fill="#162862">6-я</text>
   <text x="545.83" y="462.37" fill="#11118f">(румынская)</text>
   <text transform="matrix(.7054 -.70881 .70881 .7054 0 0)" x="-507.49" y="1175.8" fill="#162862">ХХХХ</text>
   <text transform="matrix(.7054 -.70881 .70881 .7054 0 0)" x="-557.87" y="835.93" fill="#162862"><tspan x="-557.87" y="835.93">ХХХ</tspan> <tspan x="-568.54" y="874.33">ХХХХ</tspan></text>
   <text x="609.88" y="412.38" fill="#11118f">3-я</text>
   <g fill="#162862">
    <text transform="matrix(.386 -.9225 .9225 .386 0 0)" x="-386.99" y="405.82">ХХХХ</text>
    <text transform="matrix(.29561 -.95531 .95531 .29561 0 0)" x="-306.92" y="971.73">ХХХХ</text>
    <text transform="matrix(.9842 -.17707 .17707 .9842 0 0)" x="756.08" y="1136.86">ХХХХ</text>
   </g>
   <g font-weight="700">
    <text x="260.13" y="202.95" fill="#800000"><tspan x="260.13" y="202.95">63А</tspan></text>
    <text x="575.13" y="213.95"><tspan x="575.13" y="213.95" fill="#800000">5ТА</tspan></text>
    <text x="738.13" y="314.95"><tspan x="738.13" y="314.95" fill="#800000">21А</tspan></text>
    <text x="973.13" y="406.95"><tspan x="973.13" y="406.95" fill="#800000">65А</tspan></text>
    <text x="1276.13" y="552.95"><tspan x="1276.13" y="552.95" fill="#800000">24А</tspan></text>
    <text x="1403.13" y="628.95"><tspan x="1403.13" y="628.95" fill="#800000">66А</tspan></text>
   </g>
  </g>
  <g fill="#800000" font-weight="700">
   <text x="1517.13" y="753.95" font-family="PT Sans Caption"><tspan x="1517.13" y="753.95">62А</tspan></text>
   <g font-family="Liberation Sans">
    <text x="1475.13" y="901.61"><tspan x="1475.13" y="901.61">64А</tspan></text>
    <text x="1541.13" y="1159.95"><tspan x="1541.13" y="1159.95">57А</tspan></text>
    <text x="1600.13" y="1467.95"><tspan x="1600.13" y="1467.95">51А</tspan></text>
   </g>
  </g>
 </g>
 <text x="658.21" y="-33.85" font-size="12"><tspan x="658.21" y="-33.85" font-family="DejaVu Sans" font-size="20" font-weight="bold">W</tspan></text>
</svg>
